<?xml version="1.0" standalone="no"?>
<!DOCTYPE svg PUBLIC "-//W3C//DTD SVG 20010904//EN"
 "http://www.w3.org/TR/2001/REC-SVG-20010904/DTD/svg10.dtd">
<svg version="1.0" xmlns="http://www.w3.org/2000/svg"
 width="1025.000000pt" height="1025.000000pt" viewBox="0 0 1025.000000 1025.000000"
 preserveAspectRatio="xMidYMid meet">

<g transform="translate(0.000000,1025.000000) scale(0.100000,-0.100000)"
fill="#000000" stroke="none">
<path d="M0 5120 l0 -5120 5120 0 5120 0 0 5120 0 5120 -5120 0 -5120 0 0
-5120z m4898 3654 c17 -12 22 -24 20 -46 -4 -43 -30 -57 -66 -38 -37 21 -44
76 -10 89 31 13 31 13 56 -5z m-588 -189 c20 -25 8 -50 -25 -50 -21 0 -31 5
-33 18 -4 21 14 47 33 47 7 0 18 -7 25 -15z m968 -43 c24 -15 56 -35 72 -45
23 -14 58 -18 221 -21 123 -3 229 -10 289 -21 146 -27 140 -22 140 -108 0 -69
2 -74 25 -85 14 -7 32 -12 40 -12 7 0 76 -18 152 -40 156 -45 303 -102 402
-156 118 -65 351 -208 351 -216 0 -19 -47 -18 -101 2 -59 23 -60 23 -82 3 -21
-19 -77 -30 -77 -16 0 4 9 17 21 29 l21 22 -42 31 c-61 44 -218 122 -353 175
-102 41 -312 99 -387 108 -23 3 -26 8 -35 86 -7 58 -15 86 -26 92 -33 19 -256
40 -418 40 -155 0 -169 2 -186 20 -10 11 -29 20 -42 20 -19 0 -23 -5 -23 -32
0 -48 -18 -21 -22 32 l-3 45 -53 5 c-29 3 -56 2 -61 -3 -4 -4 -23 -9 -42 -11
-19 -2 -56 -13 -83 -26 -44 -20 -74 -24 -240 -31 -185 -8 -220 -13 -386 -61
-64 -18 -85 -16 -88 11 -5 32 7 42 85 63 160 45 185 48 408 49 274 2 279 3
283 51 3 35 5 37 40 40 69 6 154 -11 200 -40z m-1730 -14 c16 -16 15 -43 -3
-58 -13 -10 -19 -10 -35 5 -24 22 -25 29 -4 49 19 19 26 20 42 4z m3090 -69
c3 -28 -16 -43 -42 -33 -38 14 -27 67 13 62 20 -2 27 -9 29 -29z m-1442 -95
c-3 -9 -6 -22 -6 -29 0 -7 -18 -20 -40 -29 -38 -15 -40 -18 -40 -61 0 -37 -3
-45 -18 -45 -10 0 -22 -4 -28 -10 -22 -22 -141 -44 -229 -43 -49 1 -91 5 -92
10 -9 24 -23 34 -56 40 -35 5 -37 4 -37 -21 0 -25 -2 -26 -64 -26 -63 0 -65 1
-68 27 -3 31 -35 44 -52 21 -6 -7 -55 -26 -110 -41 -387 -109 -838 -371 -1159
-675 -109 -104 -180 -162 -196 -162 -62 0 123 209 339 381 184 148 361 254
670 404 93 46 348 125 400 125 27 0 25 26 -2 34 -33 8 -13 22 60 41 48 12 108
16 255 15 182 -1 198 0 307 29 136 35 175 38 166 15z m204 -61 c0 -42 -20
-107 -30 -97 -14 14 0 124 16 124 9 0 14 -11 14 -27z m360 -7 l95 -11 5 -70
c5 -64 7 -71 33 -83 20 -10 36 -11 56 -4 19 7 37 6 59 -4 l32 -13 -6 -458 -6
-458 -34 -35 c-19 -20 -34 -42 -34 -49 0 -8 -11 -12 -33 -10 -46 4 -53 -4 -61
-61 -6 -41 -10 -51 -24 -48 -16 3 -17 48 -22 603 -3 330 -6 601 -8 602 -14 10
-80 23 -132 25 l-65 3 -24 -47 c-21 -43 -26 -48 -58 -48 -29 0 -33 3 -28 19 3
10 12 49 20 86 8 38 19 71 25 75 12 7 60 4 210 -14z m-472 -490 c-2 -272 -6
-498 -11 -502 -4 -4 -13 -2 -20 5 -9 9 -12 108 -12 411 0 253 -4 402 -10 409
-5 5 -19 11 -30 13 -17 3 -20 12 -23 75 -3 79 -5 77 81 82 l28 1 -3 -494z
m2006 475 c10 -16 -5 -41 -24 -41 -23 0 -34 16 -26 35 6 16 42 20 50 6z
m-4308 -99 c26 -5 43 -22 21 -22 -20 0 -23 -26 -4 -33 6 -3 2 -6 -10 -6 -12
-1 -29 -11 -38 -23 -10 -15 -18 -19 -23 -12 -4 6 -15 13 -24 17 -11 4 -15 13
-11 26 3 13 -2 24 -16 33 -29 18 -26 28 8 28 24 0 31 6 41 33 l12 32 12 -35
c8 -21 21 -36 32 -38z m831 -18 c14 -37 -41 -71 -66 -40 -9 11 -10 20 -1 35
13 25 58 28 67 5z m1672 -21 c15 -33 28 -253 15 -253 -5 0 -16 9 -24 20 -8 12
-34 32 -57 46 -24 14 -43 32 -43 41 0 10 14 54 31 99 25 66 34 81 49 77 10 -3
23 -16 29 -30z m-647 -91 c7 -7 8 -98 2 -309 l-9 -298 -47 -3 -48 -3 0 163 c0
90 -4 168 -8 175 -9 14 -174 43 -248 43 l-51 0 -6 -107 c-4 -58 -7 -209 -7
-335 0 -191 -2 -228 -14 -228 -16 0 -46 26 -46 40 0 4 -9 10 -21 13 -12 3 -19
10 -16 14 3 5 7 72 8 149 1 88 6 142 13 147 8 5 8 9 -1 15 -8 5 -14 63 -19
180 -4 95 -11 172 -16 172 -10 0 -11 -17 -12 -130 -5 -535 -4 -521 -26 -508
-15 10 -22 10 -32 0 -15 -15 -46 -15 -77 1 -23 12 -24 15 -25 157 l-1 145 -35
11 c-19 6 -59 14 -87 18 l-52 7 -3 -152 c-2 -111 -6 -153 -15 -157 -10 -3 -13
22 -14 100 -3 210 -22 302 -45 211 -9 -37 -10 -38 -59 -41 -27 -2 -54 -7 -58
-11 -4 -4 -9 -55 -10 -112 -2 -98 -3 -104 -22 -101 -105 16 -121 15 -143 -13
-21 -27 -22 -36 -22 -304 0 -207 -3 -281 -12 -293 -12 -15 -129 -68 -150 -68
-12 0 -10 327 2 335 5 3 15 15 21 27 9 17 8 19 -9 14 -18 -6 -20 1 -26 156 -4
90 -9 164 -11 166 -1 2 -32 8 -69 14 -36 6 -66 16 -66 21 0 19 173 178 286
262 302 226 651 386 929 425 82 12 363 6 377 -8z m1521 -71 c85 -30 193 -89
244 -135 l45 -41 -30 -22 -31 -23 -28 23 c-54 44 -130 87 -154 87 -30 0 -84
-33 -99 -59 -22 -42 -30 -20 -30 84 0 119 -4 115 83 86z m-3293 -103 c44 -14
52 -34 18 -47 -13 -5 -105 -12 -206 -16 -169 -7 -186 -9 -209 -30 -22 -18 -26
-30 -26 -68 1 -42 -1 -47 -21 -47 -33 0 -63 26 -76 65 -9 28 -8 40 5 69 31 66
60 71 428 84 26 1 65 -4 87 -10z m2460 -57 l85 -36 3 -283 c2 -222 0 -282 -10
-282 -7 0 -56 13 -108 28 l-95 27 -3 298 -2 298 22 -7 c13 -4 61 -23 108 -43z
m888 -28 c2 -8 -6 -13 -22 -13 -26 0 -40 12 -29 24 11 11 46 2 51 -11z m-1760
-40 c21 -5 22 -8 22 -143 l0 -137 -51 9 c-37 7 -60 6 -81 -3 -25 -10 -31 -10
-39 2 -6 10 -2 15 16 17 35 5 35 42 1 42 l-25 0 4 103 c1 56 3 108 4 116 1 11
14 12 64 7 34 -4 72 -10 85 -13z m1807 -8 c27 0 31 -4 37 -40 3 -22 7 -102 7
-177 1 -148 0 -151 -49 -124 -15 9 -25 23 -25 37 0 12 -6 24 -14 27 -10 3 -12
-2 -7 -22 3 -14 5 -26 4 -26 -2 0 -19 4 -37 10 -19 5 -39 6 -45 2 -6 -5 -39
-20 -73 -35 l-63 -26 0 22 c0 18 10 26 49 40 27 9 63 17 80 17 37 0 41 17 6
30 -25 9 -25 10 -25 145 l0 135 63 -7 c34 -4 76 -7 92 -8z m588 -2 c48 -24
134 -92 141 -110 6 -14 20 -15 107 -9 97 6 102 7 155 47 76 56 112 69 191 69
50 0 81 -6 118 -24 59 -27 128 -98 144 -149 10 -30 20 -38 58 -51 77 -26 131
-64 158 -110 14 -23 25 -52 25 -64 0 -12 15 -37 34 -56 70 -70 95 -156 55
-192 -17 -16 -22 -16 -29 -4 -6 8 -10 21 -10 29 0 33 -43 81 -96 106 l-54 26
0 50 c0 90 -43 140 -136 159 -48 10 -54 14 -54 36 0 45 -37 102 -86 130 -33
20 -63 28 -112 31 -78 5 -106 -7 -139 -56 -38 -56 -26 -108 18 -78 13 9 16 17
10 21 -18 12 18 54 56 67 99 32 182 -19 212 -131 13 -47 22 -64 37 -66 65 -9
87 -18 119 -48 34 -32 42 -57 29 -90 -8 -22 -24 -20 -78 10 -46 26 -47 26 -89
9 -23 -9 -58 -32 -78 -51 -34 -33 -37 -34 -53 -19 -21 21 -20 28 4 50 27 24
23 75 -5 90 -11 5 -30 20 -43 33 -12 12 -29 22 -38 22 -9 0 -26 11 -38 23 -56
62 -141 87 -295 87 -72 0 -82 -2 -79 -17 2 -11 29 -23 91 -38 92 -23 197 -71
205 -92 2 -7 -8 -17 -21 -22 -20 -8 -50 -1 -142 30 -65 21 -124 39 -131 39
-16 0 -19 -16 -4 -25 16 -10 12 -35 -10 -62 -15 -20 -20 -41 -20 -89 0 -60
-15 -94 -41 -94 -12 0 -12 206 1 250 5 19 6 37 2 41 -4 4 -32 9 -62 11 l-54 3
-9 -37 c-5 -21 -12 -38 -15 -38 -4 1 -18 24 -32 53 -37 76 -98 112 -194 112
-39 0 -92 -4 -118 -9 -33 -6 -48 -5 -48 2 0 17 88 53 165 67 69 12 70 13 40
25 -30 12 -161 8 -198 -6 -35 -13 -15 17 29 46 66 42 138 63 188 57 22 -3 99
-35 170 -71 101 -50 134 -62 148 -55 19 10 25 29 8 29 -20 0 -150 92 -150 105
0 19 4 19 43 -2z m-4190 -10 c-18 -2 -48 -2 -65 0 -18 2 -4 4 32 4 36 0 50 -2
33 -4z m331 -49 c24 -9 19 -41 -6 -48 -28 -7 -51 14 -42 37 6 18 22 21 48 11z
m-864 -59 c0 -8 -7 -15 -15 -15 -8 0 -15 7 -15 15 0 8 7 15 15 15 8 0 15 -7
15 -15z m1738 -101 c21 -6 22 -10 22 -139 l0 -132 -41 -7 c-22 -4 -44 -4 -50
-1 -5 4 -9 69 -9 146 l0 139 28 0 c15 0 37 -3 50 -6z m-196 -47 c10 -15 10
-184 1 -190 -5 -3 -22 -2 -40 0 l-32 5 -3 94 c-2 52 -1 99 1 105 4 14 62 3 73
-14z m3023 -22 c21 -20 25 -34 25 -85 l0 -60 -31 0 c-17 0 -38 4 -48 9 -10 6
-48 12 -86 15 -38 3 -78 9 -88 12 -31 10 -1 22 46 19 23 -2 47 1 53 6 8 6 14
4 18 -6 3 -9 18 -15 36 -15 27 0 30 3 30 30 0 28 -2 30 -42 31 -24 1 -54 5
-68 9 -23 7 -22 8 10 9 96 3 139 26 79 42 -21 6 -20 7 9 8 23 1 41 -7 57 -24z
m-4385 -25 c0 -5 -4 -10 -10 -10 -5 0 -10 5 -10 10 0 6 5 10 10 10 6 0 10 -4
10 -10z m2167 -47 l66 -18 -5 -152 c-3 -84 -7 -155 -9 -157 -4 -4 -118 20
-124 26 -8 7 -9 318 -2 318 5 0 38 -8 74 -17z m436 -18 c14 -6 15 -10 6 -21
-9 -11 -8 -14 2 -14 11 0 11 -2 -1 -10 -23 -15 -40 -12 -34 5 4 10 0 15 -15
15 -15 0 -21 -5 -19 -17 2 -13 -11 -21 -59 -34 -33 -9 -80 -20 -102 -24 l-41
-7 0 54 c0 30 3 58 8 63 8 9 228 0 255 -10z m1227 -220 c0 -198 -1 -205 -20
-205 -19 0 -20 7 -20 195 0 174 2 195 18 204 9 6 18 11 20 11 1 0 2 -92 2
-205z m189 154 l81 -31 0 -274 0 -275 35 -76 c20 -41 39 -72 43 -68 8 8 3 658
-5 694 -4 17 -2 22 8 19 8 -3 31 1 52 8 20 7 37 9 37 4 0 -5 -11 -12 -24 -16
-17 -4 -26 -15 -30 -37 -3 -18 -6 -196 -8 -397 -2 -387 -5 -460 -18 -460 -5 0
-6 8 -3 19 3 14 -2 20 -21 23 -18 4 -26 1 -26 -8 0 -18 -26 -17 -130 4 l-85
18 -3 89 c-2 50 0 150 3 222 7 125 8 132 25 123 13 -7 21 -7 25 0 9 15 -15 42
-32 36 -15 -6 -15 -10 -17 236 0 98 2 178 6 178 3 0 43 -14 87 -31z m186 11
c3 -5 -1 -10 -9 -10 -9 0 -16 5 -16 10 0 6 4 10 9 10 6 0 13 -4 16 -10z
m-3616 -52 c0 -41 -3 -45 -60 -85 l-59 -43 0 40 c0 36 5 43 58 85 31 25 58 45
60 45 1 0 2 -19 1 -42z m4304 12 l72 -30 3 -207 3 -208 50 -44 c49 -43 109
-120 109 -140 0 -25 -35 -8 -88 43 -67 63 -96 79 -122 71 -19 -6 -20 -1 -20
178 0 205 1 202 -68 213 l-42 7 0 67 c0 94 -1 93 103 50z m-4143 6 l54 -12 -2
-135 c-2 -74 -7 -258 -13 -409 -5 -151 -9 -333 -8 -403 1 -71 -2 -131 -5 -134
-3 -4 -15 2 -26 12 -11 10 -26 15 -35 11 -9 -3 -27 -3 -41 0 l-24 6 0 539 0
539 23 0 c12 -1 47 -7 77 -14z m510 -40 l95 -23 3 -186 c3 -210 7 -199 -80
-212 -33 -5 -48 -4 -48 4 0 6 -4 11 -10 11 -5 0 -7 -7 -4 -15 4 -9 1 -15 -7
-15 -8 0 -24 -3 -36 -6 l-23 -6 0 236 c0 130 3 236 8 236 4 -1 50 -11 102 -24z
m2467 -18 c-3 -8 -6 -5 -6 6 -1 11 2 17 5 13 3 -3 4 -12 1 -19z m-944 -15 c7
-4 8 -131 4 -347 -4 -188 -7 -365 -7 -393 0 -49 -2 -53 -24 -53 l-23 0 -5 324
c-5 307 -12 379 -34 345 -8 -13 -21 -338 -23 -571 -1 -65 -4 -88 -14 -88 -10
0 -14 54 -15 263 -1 144 -5 285 -8 313 -6 56 -18 83 -31 70 -4 -4 -10 -151
-11 -327 -3 -267 -6 -319 -18 -319 -12 0 -14 31 -14 178 0 97 -4 182 -8 188
-9 14 -126 34 -130 23 -7 -18 -20 -9 -15 10 3 13 -1 21 -14 24 -15 4 -15 5 -1
6 9 0 20 -3 23 -9 3 -5 16 -10 27 -10 21 0 21 0 -2 20 -13 11 -17 20 -10 20 7
0 10 7 6 15 -3 9 0 15 8 15 7 0 19 7 26 15 10 13 10 19 -4 33 -19 22 -20 32
-3 32 9 0 12 26 12 98 0 71 -3 97 -12 96 -7 -1 -19 -2 -25 -3 -8 0 -14 -21
-17 -54 -5 -85 -5 -101 2 -129 4 -16 3 -28 -2 -28 -10 0 -21 58 -21 118 0 34
-3 42 -19 42 -10 0 -21 9 -24 20 -4 16 2 22 36 30 23 6 62 17 87 25 25 8 56
16 70 19 31 6 220 -3 233 -11z m-1006 -50 c-3 -10 -5 -4 -5 12 0 17 2 24 5 18
2 -7 2 -21 0 -30z m-1379 -19 c-3 -25 -9 -30 -47 -40 -49 -12 -59 -26 -60 -90
-1 -29 -18 -75 -57 -155 -32 -64 -84 -198 -118 -304 -62 -189 -62 -190 -90
-188 -16 1 -30 4 -32 6 -3 2 11 54 30 115 20 61 43 140 51 174 9 35 50 127 91
206 41 79 74 156 74 171 0 36 20 60 90 109 59 42 73 41 68 -4z m1243 -124 c-2
-91 -7 -174 -12 -185 -6 -16 -8 -12 -8 18 -1 22 -7 40 -14 43 -13 5 -85 -8
-121 -22 -15 -6 -16 6 -14 142 l3 149 55 11 c30 7 69 11 85 11 l30 -2 -4 -165z
m1343 144 c56 -15 107 -31 114 -37 16 -13 17 -277 1 -277 -7 0 -42 9 -78 19
-36 11 -85 25 -108 31 l-43 11 0 139 c0 77 3 140 7 140 3 0 52 -12 107 -26z
m-2404 -18 c0 -29 -6 -37 -51 -65 -28 -17 -52 -31 -55 -31 -2 0 -4 17 -4 38 0
34 4 39 48 64 26 15 50 27 55 27 4 1 7 -14 7 -33z m4992 24 c33 -10 68 -41 68
-62 0 -14 -44 -9 -100 12 -30 11 -56 20 -57 20 -2 0 -3 5 -3 10 0 6 10 15 23
20 29 11 26 11 69 0z m-1099 -35 c-4 -5 -3 -7 2 -3 12 12 65 -24 65 -44 0 -10
-4 -18 -10 -18 -5 0 -9 3 -9 8 3 18 -2 32 -12 32 -6 0 -7 -5 -2 -12 15 -25 4
-68 -18 -68 -18 0 -39 34 -39 63 0 48 11 82 21 66 4 -7 5 -18 2 -24z m-883
-20 c13 -14 20 -28 17 -32 -8 -7 -117 15 -117 24 0 12 36 32 56 33 11 0 31
-11 44 -25z m1528 -7 c4 -19 -80 -127 -86 -110 -6 18 16 77 40 107 21 27 41
29 46 3z m151 -1 c-15 -12 -35 -35 -45 -52 -10 -16 -27 -36 -37 -43 -13 -10
-15 -17 -7 -27 8 -10 2 -20 -27 -44 -33 -27 -39 -29 -52 -17 -14 15 -6 27 114
171 14 16 47 34 65 35 10 0 6 -8 -11 -23z m-4876 -249 c2 -98 0 -183 -5 -190
-4 -7 -7 77 -7 187 0 110 2 196 4 190 2 -5 5 -90 8 -187z m1467 99 c0 -89 -1
-94 -21 -93 -23 1 -64 -57 -54 -75 12 -18 55 -10 65 14 6 14 9 -47 9 -174 1
-149 -2 -198 -11 -202 -7 -3 -31 -13 -52 -22 l-39 -16 6 67 c4 55 9 71 28 85
19 14 21 20 12 30 -10 10 -16 9 -28 -7 -13 -18 -14 -15 -15 29 0 65 14 91 42
76 27 -15 53 9 43 40 -8 27 -35 27 -42 1 -7 -25 -33 -27 -34 -2 0 9 -2 59 -5
110 l-5 92 25 0 c26 0 70 45 60 61 -10 17 -53 9 -67 -11 -13 -18 -15 -19 -21
-5 -13 34 -5 46 47 69 28 14 53 25 55 25 1 1 2 -41 2 -92z m235 51 l120 -33
-3 -167 -2 -167 -38 -6 c-20 -4 -44 -7 -52 -8 -11 -2 -17 -20 -21 -65 -3 -34
-8 -64 -10 -66 -7 -5 -137 -36 -154 -36 -13 0 -15 36 -15 296 l0 297 28 -7
c15 -3 81 -21 147 -38z m1505 2 c9 -13 12 -496 4 -511 -2 -4 -23 -2 -46 3 -24
4 -60 11 -80 15 l-38 6 -2 121 c-1 118 -1 302 1 360 l1 28 76 -4 c52 -2 78 -8
84 -18z m839 -28 c85 -42 114 -74 109 -120 l-3 -31 -65 29 c-68 30 -90 27 -90
-11 0 -11 -6 -19 -12 -19 -10 0 -10 -2 -1 -8 9 -5 10 -56 6 -195 -4 -131 -9
-185 -17 -177 -5 5 -20 10 -33 10 -19 0 -23 -5 -23 -30 0 -37 23 -49 49 -26
18 16 19 16 17 -7 -1 -23 -4 -24 -36 -20 -19 3 -37 8 -40 10 -3 3 -6 132 -8
287 l-3 282 26 12 c31 14 33 39 3 45 -16 3 -11 5 12 6 23 1 61 -12 109 -37z
m-3860 -9 c-2 -30 -3 -32 -6 -11 -4 24 -7 26 -29 17 -14 -5 -29 -7 -34 -4 -4
3 -6 -3 -3 -14 3 -10 0 -22 -6 -25 -7 -5 -11 4 -11 23 0 17 3 31 8 32 35 3 65
9 70 13 10 11 12 6 11 -31z m-534 -8 c0 -13 -8 -21 -22 -23 -17 -3 -23 2 -23
16 0 10 3 22 7 26 13 13 38 1 38 -19z m3228 -27 l27 -10 0 -193 0 -193 -47 -4
c-27 -3 -49 -4 -50 -4 0 1 -3 97 -5 214 l-3 213 25 -6 c14 -3 37 -11 53 -17z
m-2693 -58 c0 -27 -3 -50 -7 -50 -5 0 -6 22 -5 50 5 65 12 65 12 0z m3162 1
c40 -15 82 -31 92 -35 18 -6 19 -16 13 -192 -3 -102 -8 -188 -11 -191 -3 -3
-25 -2 -48 3 -35 8 -43 13 -41 31 3 24 -21 48 -37 38 -7 -4 -9 -18 -6 -31 5
-19 2 -24 -14 -24 -23 0 -21 -17 -26 268 -1 89 -1 162 1 162 2 0 36 -13 77
-29z m-1341 -4 c-10 -9 -11 -8 -5 6 3 10 9 15 12 12 3 -3 0 -11 -7 -18z m2773
-49 c39 -40 82 -94 94 -121 21 -41 29 -48 68 -58 53 -14 104 -74 104 -123 -1
-41 -17 -113 -36 -151 -19 -40 -273 -210 -289 -194 -6 6 -9 70 -9 160 2 130 4
153 20 171 43 47 88 42 136 -15 l27 -32 1 53 c0 53 0 54 -40 69 -35 14 -41 21
-47 56 -6 40 -43 96 -114 174 -38 41 -46 62 -32 76 18 19 52 1 117 -65z m351
23 c3 -5 1 -12 -5 -16 -5 -3 -10 1 -10 9 0 18 6 21 15 7z m-3947 -193 c-10 -8
-10 -11 0 -15 9 -4 12 -92 12 -395 0 -214 -3 -388 -7 -386 -5 2 -31 15 -58 30
-28 14 -69 31 -93 37 l-42 12 0 326 c0 299 1 327 18 339 16 12 16 13 0 19 -14
6 -18 19 -18 62 0 33 4 52 10 48 6 -3 10 -2 10 4 0 5 -6 12 -12 14 -10 4 -9 8
2 16 13 10 13 11 0 11 -27 1 12 18 101 44 l84 24 3 -91 c2 -65 -1 -93 -10 -99z
m1427 134 c75 -24 91 -32 93 -51 2 -12 -2 -28 -8 -36 -7 -9 -8 -15 0 -20 15
-9 12 -51 -5 -65 -8 -7 -15 -17 -15 -22 0 -6 7 -5 15 2 13 11 15 7 15 -28 0
-46 -11 -57 -64 -65 -42 -7 -68 -32 -60 -59 3 -11 -4 -23 -21 -34 -24 -16 -27
-16 -42 -1 -24 24 -36 419 -13 412 8 -2 56 -17 105 -33z m-2496 21 c-5 -30 4
-53 22 -58 17 -6 19 -9 8 -16 -19 -12 -32 -11 -24 1 3 6 0 10 -8 10 -10 0 -14
10 -12 33 3 37 3 37 10 37 3 0 4 -3 4 -7z m1861 -28 c-7 -9 -15 -13 -17 -11
-7 7 7 26 19 26 6 0 6 -6 -2 -15z m2143 -1 l47 -16 0 -129 0 -128 -27 1 c-16
1 -40 -2 -55 -6 l-28 -8 0 144 c0 122 3 158 15 158 1 0 22 -7 48 -16z m-3938
-542 c-3 -3 -23 0 -45 7 -38 11 -40 14 -40 50 0 34 3 38 20 34 13 -3 20 -14
20 -28 0 -30 10 -55 21 -55 5 0 9 34 9 75 0 62 -3 75 -16 75 -12 0 -15 -6 -10
-25 7 -28 4 -30 -25 -15 -18 10 -19 23 -19 197 0 156 2 184 14 174 7 -6 21 -9
30 -5 9 3 16 3 16 0 0 -4 -12 -11 -26 -16 -33 -13 -26 -35 12 -35 24 0 29 4
31 25 5 92 8 42 10 -189 2 -145 1 -266 -2 -269z m-265 471 c0 -66 -8 -90 -37
-108 -14 -9 -26 -15 -29 -13 -7 8 47 168 56 168 6 0 10 -21 10 -47z m5500 -48
c0 -29 -28 -47 -53 -34 -22 13 -22 55 0 68 25 13 53 -5 53 -34z m-3312 -155
c-2 -54 -7 -102 -10 -106 -4 -3 -49 18 -101 48 -51 30 -110 58 -130 62 -70 13
-29 63 44 53 27 -4 51 2 85 19 26 13 63 24 82 24 l34 0 -4 -100z m2520 48 c9
-9 12 -72 12 -220 0 -169 3 -215 15 -239 9 -16 19 -28 23 -25 4 2 49 29 100
60 119 72 208 117 216 109 20 -20 0 -44 -71 -86 -43 -25 -96 -60 -117 -79
l-39 -34 15 -62 c13 -51 13 -63 2 -73 -10 -8 -18 0 -38 39 -29 58 -62 82 -111
82 -29 0 -37 5 -45 26 -6 14 -15 132 -22 261 -9 199 -9 236 3 244 20 12 43 11
57 -3z m-5478 -23 c0 -8 -4 -15 -10 -15 -5 0 -7 7 -4 15 4 8 8 15 10 15 2 0 4
-7 4 -15z m2732 -114 c24 -10 52 -26 63 -35 20 -15 20 -15 0 -16 -12 0 -25 -4
-30 -9 -6 -5 -80 -11 -165 -14 l-154 -3 -7 -31 -6 -30 44 5 c35 4 43 2 43 -12
0 -12 -6 -15 -24 -10 -13 3 -40 1 -60 -4 -24 -7 -34 -7 -30 -1 3 6 8 29 10 52
3 32 1 38 -8 29 -14 -14 -38 -16 -38 -3 0 18 193 84 275 94 17 2 33 5 37 6 3
0 26 -8 50 -18z m1075 7 c28 -37 -37 -436 -101 -624 -94 -277 -171 -475 -229
-589 -28 -55 -37 -66 -42 -52 -4 10 0 45 10 78 16 51 16 65 6 101 -7 24 -20
54 -28 67 -8 13 -10 20 -4 17 6 -4 11 -2 11 3 0 6 -6 11 -12 11 -9 0 -10 2 -2
8 23 15 25 48 4 67 -27 24 -26 30 14 53 42 25 70 75 62 108 -7 27 -4 29 26 13
17 -9 19 -17 13 -55 -3 -24 -3 -44 2 -44 11 0 63 94 63 114 0 8 -16 28 -35 43
-34 27 -34 28 -13 35 l23 6 -22 7 c-13 4 -23 11 -23 16 0 14 -38 11 -43 -3 -2
-7 -8 -10 -12 -5 -5 4 -3 13 3 19 18 18 15 28 -7 28 -26 0 -36 -17 -21 -35 10
-12 10 -15 1 -15 -27 0 -49 20 -44 40 4 14 0 20 -12 20 -12 0 -15 -5 -10 -19
6 -20 7 -20 -57 -6 -27 5 -28 7 -28 73 0 37 4 73 8 80 11 16 112 55 112 43 0
-6 -4 -13 -10 -16 -5 -3 -10 -21 -10 -40 0 -24 7 -39 26 -54 15 -12 31 -21 36
-21 5 0 16 -7 24 -15 53 -53 152 45 115 113 -6 9 -15 46 -20 81 -6 35 -16 69
-22 77 -15 19 -39 18 -54 -2 -9 -13 -16 -14 -32 -6 -11 6 -30 8 -42 5 -13 -3
-29 1 -41 12 -37 33 -25 58 60 135 44 40 82 71 83 69 2 -2 24 -34 50 -71 26
-37 56 -69 67 -73 27 -9 90 28 90 52 0 5 -22 37 -50 71 -27 34 -50 66 -50 71
0 19 153 27 167 9z m1227 -15 c24 -17 48 -69 39 -86 -2 -4 -11 0 -19 8 -9 8
-29 15 -45 15 -22 0 -29 -5 -29 -20 0 -11 8 -25 18 -31 12 -8 17 -20 14 -35
-4 -20 0 -24 22 -24 28 0 34 18 14 38 -9 9 -8 12 5 12 13 0 17 -9 17 -36 0
-34 -2 -36 -27 -32 -16 3 -36 9 -45 13 -26 10 -24 -29 2 -55 11 -11 20 -24 20
-28 0 -8 -65 -32 -84 -32 -3 0 -6 49 -6 110 0 99 -2 110 -20 120 -18 10 -19
13 -5 26 8 9 15 22 15 29 0 37 68 42 114 8z m-1084 -3 c13 0 15 -98 14 -822
l0 -823 -104 -32 -104 -33 -22 21 c-27 25 -174 230 -219 305 l-32 54 88 204
c98 228 220 586 243 716 25 141 46 307 46 367 l0 56 38 -7 c20 -3 44 -6 52 -6z
m203 -29 c19 -7 20 -22 18 -766 -2 -574 -5 -761 -14 -767 -16 -11 -57 -21 -62
-17 -2 2 -7 156 -11 343 -4 186 -10 332 -14 325 -4 -8 -10 -122 -14 -254 -4
-132 -12 -265 -17 -296 -6 -31 -10 -78 -8 -103 4 -42 -3 -56 -27 -56 -2 0 -4
363 -4 806 l0 806 67 -7 c37 -4 75 -10 86 -14z m219 -28 l31 -6 -6 -126 c-4
-69 -7 -151 -7 -182 l0 -57 -47 -23 c-46 -23 -48 -27 -55 -74 -3 -27 -7 -263
-7 -523 l-1 -472 -26 -10 c-14 -6 -30 -10 -35 -10 -7 0 -9 251 -7 751 l3 751
63 -6 c34 -4 77 -9 94 -13z m-2682 -41 l75 -27 3 -145 c4 -210 8 -200 -90
-232 -46 -15 -83 -26 -84 -25 -1 1 -4 104 -6 230 -6 261 -16 241 102 199z
m2946 -8 c98 -19 180 -37 183 -40 3 -2 -1 -44 -8 -92 -7 -48 -15 -239 -18
-431 -5 -329 -5 -348 17 -462 14 -72 20 -123 14 -128 -9 -10 -219 -121 -226
-121 -3 0 -7 188 -11 418 l-5 419 -31 66 -30 67 -46 0 c-35 0 -46 3 -42 13 3
8 8 84 12 170 4 87 9 157 10 157 1 0 82 -16 181 -36z m-1341 14 c4 -4 -7 -41
-24 -82 -17 -41 -31 -82 -31 -90 0 -19 -16 -21 -23 -3 -3 9 -24 14 -58 15 -29
0 -55 5 -58 10 -3 6 -17 12 -31 13 -24 4 -25 8 -28 77 l-3 74 125 -4 c68 -2
128 -6 131 -10z m2889 -9 c48 -38 23 -111 -39 -111 -62 0 -87 73 -39 111 15
12 32 21 39 21 7 0 24 -9 39 -21z m-3857 -6 c3 -7 -4 -9 -16 -6 -12 3 -28 0
-36 -7 -8 -7 -15 -8 -15 -3 0 11 40 33 54 29 6 -1 11 -7 13 -13z m43 -18 c14
-19 14 -19 -2 -6 -10 7 -18 18 -18 24 0 6 1 8 3 6 1 -2 9 -13 17 -24z m-1910
-65 c0 -64 -3 -73 -26 -95 -19 -18 -22 -25 -12 -25 19 0 51 -46 43 -60 -3 -6
-18 -10 -33 -10 -40 0 -122 -27 -159 -53 -50 -33 -93 -125 -93 -198 0 -65 -14
-78 -60 -54 -28 15 -50 58 -50 101 0 27 95 171 130 196 14 10 47 24 74 31 l49
12 1 55 1 55 40 5 c39 5 40 6 49 58 8 40 14 52 28 52 16 0 18 -9 18 -70z
m2107 10 c-3 -11 -1 -23 4 -26 5 -3 9 2 9 10 0 9 8 16 18 17 14 0 14 2 -3 9
-13 6 9 9 66 9 119 1 176 -17 228 -75 23 -25 41 -50 38 -57 -2 -6 -24 -25 -49
-42 -42 -27 -47 -34 -50 -75 l-3 -45 -43 1 c-34 1 -49 7 -71 30 -15 16 -37 36
-49 44 -36 24 -25 32 40 29 52 -2 64 0 66 14 3 14 -5 17 -45 18 -39 0 -44 2
-25 9 46 19 22 30 -65 30 l-88 0 30 24 c20 16 36 22 50 17 35 -11 120 2 120
19 0 10 -13 16 -40 18 -22 2 -45 8 -51 13 -15 12 -44 1 -44 -16 0 -19 -21 -24
-47 -12 -17 8 -20 14 -13 27 5 10 6 20 3 24 -3 3 -1 6 6 6 8 0 11 -8 8 -20z
m-2572 1 c3 -5 1 -12 -5 -16 -5 -3 -10 1 -10 9 0 18 6 21 15 7z m2545 5 c0 -3
-4 -8 -10 -11 -5 -3 -10 -1 -10 4 0 6 5 11 10 11 6 0 10 -2 10 -4z m-1487
-102 c126 -23 117 -16 117 -92 0 -37 -3 -118 -7 -179 l-6 -113 -29 0 c-29 0
-68 30 -68 54 0 21 -77 86 -110 93 -29 5 -30 8 -30 60 l0 55 31 -7 c24 -5 30
-4 27 6 -3 8 -17 15 -31 17 -26 3 -27 5 -27 69 0 65 0 65 25 59 14 -4 63 -13
108 -22z m1302 -94 c3 -5 -3 -10 -14 -10 -12 0 -21 5 -21 10 0 6 6 10 14 10 8
0 18 -4 21 -10z m195 0 c-8 -5 -19 -10 -25 -10 -5 0 -3 5 5 10 8 5 20 10 25
10 6 0 3 -5 -5 -10z m-257 -7 c-7 -2 -19 -2 -25 0 -7 3 -2 5 12 5 14 0 19 -2
13 -5z m773 -3 c6 -6 20 -6 40 2 40 15 101 3 115 -23 8 -17 5 -31 -15 -73 -14
-29 -26 -58 -26 -64 0 -7 -9 -12 -20 -12 -12 0 -35 -7 -52 -16 -16 -9 -40 -13
-52 -10 -26 6 -52 50 -48 78 2 13 -3 18 -20 18 -28 0 -48 17 -48 40 0 40 99
87 126 60z m2214 -4 c6 -8 21 -16 33 -18 16 -2 22 -10 22 -30 1 -37 7 -41 57
-40 43 1 128 -33 135 -55 2 -6 -4 -13 -14 -17 -66 -23 -92 -57 -86 -107 l5
-37 -43 14 c-24 8 -53 18 -64 23 -11 5 -38 9 -60 9 -31 0 -47 -6 -72 -31 -33
-31 -60 -32 -29 -1 28 27 16 49 -26 49 -25 1 -45 8 -63 25 -32 30 -31 38 1 51
21 7 32 6 51 -7 14 -8 27 -13 30 -10 12 12 -18 57 -49 75 -18 11 -39 26 -47
33 -8 7 -22 16 -30 20 -14 6 -13 7 2 7 9 1 17 7 17 15 0 16 57 20 66 4 10 -15
35 -8 62 17 30 28 82 34 102 11z m-3026 -5 c4 -5 -3 -7 -14 -4 -23 6 -26 13
-6 13 8 0 17 -4 20 -9z m3542 -12 c7 -6 16 -19 19 -29 3 -11 15 -22 26 -25 31
-10 13 -20 -29 -16 -45 3 -62 18 -67 59 -3 26 -1 30 17 27 11 -2 26 -9 34 -16z
m244 -30 c0 -22 -22 -25 -39 -6 -8 10 -8 16 0 24 16 16 39 5 39 -18z m-6307
10 c-6 -6 -9 -18 -6 -25 3 -9 -2 -14 -16 -14 -12 0 -21 4 -21 9 0 5 -3 16 -6
25 -5 13 1 16 27 16 24 0 30 -3 22 -11z m707 -13 c0 -2 -25 -16 -55 -31 -56
-27 -70 -48 -63 -96 4 -33 72 -68 98 -51 11 7 32 12 46 12 23 0 25 -2 13 -16
-7 -9 -24 -20 -36 -25 -13 -5 -29 -21 -35 -36 -16 -37 -15 -36 -30 -25 -90 72
-112 110 -96 169 12 44 62 77 156 102 1 1 2 -1 2 -3z m342 -68 l37 -31 -36
-19 c-32 -17 -40 -18 -85 -6 -61 15 -70 33 -34 65 37 32 74 29 118 -9z m1443
22 c3 -5 1 -10 -4 -10 -6 0 -11 5 -11 10 0 6 2 10 4 10 3 0 8 -4 11 -10z
m-1775 -15 c-7 -8 -17 -15 -22 -15 -5 0 -18 -10 -29 -22 -14 -18 -18 -19 -19
-7 0 23 40 55 74 58 5 1 3 -6 -4 -14z m1835 -5 c3 -6 -1 -7 -9 -4 -18 7 -21
14 -7 14 6 0 13 -4 16 -10z m2223 -31 c20 -40 20 -52 15 -463 l-6 -421 -81
-35 c-44 -19 -84 -37 -89 -38 -4 -2 -7 215 -6 482 1 555 -6 511 93 515 54 1
54 1 74 -40z m-2153 2 c10 -17 -12 -21 -25 -6 -10 12 -10 15 3 15 9 0 18 -4
22 -9z m245 -6 c17 -9 30 -23 30 -31 0 -13 7 -14 38 -9 30 5 42 2 60 -15 22
-20 22 -22 5 -50 -12 -21 -27 -31 -56 -36 -22 -3 -42 -2 -46 3 -3 6 -18 13
-33 16 -15 4 -33 14 -42 22 -19 19 -30 19 -46 0 -15 -19 -90 -21 -90 -2 1 38
17 60 64 87 58 34 75 36 116 15z m-677 -59 c51 -23 74 -46 47 -46 -5 0 -10 -5
-10 -10 0 -6 14 -9 32 -8 25 2 33 -1 36 -17 6 -32 22 -45 53 -45 37 0 77 -18
112 -49 27 -25 39 -54 13 -32 -10 8 -16 9 -21 1 -4 -6 -13 -2 -25 12 l-19 23
-22 -22 c-18 -18 -25 -19 -41 -10 -16 10 -22 9 -33 -6 -7 -10 -15 -14 -16 -10
-10 24 -103 71 -151 77 -47 7 -55 5 -67 -13 -8 -13 -24 -21 -42 -21 -28 0 -34
-8 -30 -39 2 -7 -3 -10 -8 -6 -6 3 -25 0 -41 -9 -32 -16 -40 -11 -13 9 18 13
10 35 -13 35 -12 0 -18 -12 -15 -32 0 -4 -8 -10 -19 -13 -11 -4 -20 -12 -20
-18 0 -7 -7 -21 -16 -32 -14 -19 -15 -18 -12 15 3 30 0 35 -19 35 -12 0 -25 4
-29 8 -4 4 -12 3 -18 -2 -6 -5 -31 -5 -56 -1 -25 4 -39 8 -31 9 11 1 11 4 1
16 -14 17 -3 29 115 129 104 88 152 108 245 103 52 -3 92 -12 133 -31z m4240
-37 c43 -74 95 -194 112 -259 10 -39 16 -45 41 -48 16 -2 32 -7 36 -10 4 -4
13 -42 19 -83 12 -84 6 -77 106 -104 24 -7 141 -127 162 -167 13 -26 12 -28
-55 -90 -38 -35 -112 -105 -166 -155 -53 -51 -100 -93 -105 -93 -13 0 -106 74
-111 87 -6 20 28 28 62 15 30 -12 31 -11 149 105 l118 118 -83 79 c-45 44
-112 102 -147 130 l-65 51 37 14 c50 19 50 43 0 36 -21 -3 -43 -2 -49 2 -6 4
-16 41 -23 81 -13 86 -47 174 -97 254 -34 56 -34 58 -18 83 9 14 22 24 28 22
6 -2 28 -32 49 -68z m-286 36 c79 -33 142 -107 143 -168 0 -17 -2 -17 -22 -3
-12 9 -30 16 -39 16 -9 0 -27 8 -40 19 -20 16 -21 21 -10 35 7 9 11 23 7 31
-9 23 -35 18 -48 -10 -7 -16 -17 -24 -26 -20 -7 3 -18 5 -23 5 -6 0 -7 9 -4
20 7 24 -20 39 -37 22 -9 -9 -7 -17 7 -32 18 -20 18 -20 -12 -20 -18 0 -33 6
-37 15 -9 23 -35 18 -48 -10 -13 -30 -28 -33 -28 -6 0 29 -18 36 -40 16 -11
-10 -26 -15 -33 -12 -8 3 -21 0 -28 -6 -8 -7 0 3 16 21 78 86 212 125 302 87z
m-4913 -25 c14 -5 26 -13 26 -17 0 -5 -26 -23 -58 -40 -47 -26 -65 -31 -99
-26 -48 6 -100 -16 -171 -74 -27 -22 -49 -33 -59 -29 -13 6 -9 14 23 47 54 56
112 88 218 120 50 15 92 28 93 28 1 1 13 -3 27 -9z m1284 -34 c3 -20 0 -27
-10 -23 -7 3 -32 11 -55 18 -66 18 -56 42 17 37 41 -3 45 -5 48 -32z m4172 24
c0 -5 -4 -10 -10 -10 -5 0 -10 5 -10 10 0 6 5 10 10 10 6 0 10 -4 10 -10z
m-5877 -28 c16 -7 14 -11 -14 -37 -28 -26 -31 -27 -25 -8 4 12 2 24 -5 28 -8
6 -7 10 2 16 16 10 18 10 42 1z m902 -4 c30 -14 36 -53 6 -43 -10 3 -25 0 -32
-8 -8 -7 -31 -23 -51 -36 -26 -15 -38 -30 -38 -46 0 -30 -26 -53 -42 -37 -20
20 -36 14 -32 -10 2 -13 2 -17 -2 -10 -3 6 -13 12 -22 12 -14 0 -78 -26 -124
-50 -9 -5 -40 -7 -70 -3 -41 4 -50 3 -42 -7 13 -13 7 -50 -8 -50 -5 0 -6 10
-3 23 7 22 7 22 -9 2 -14 -18 -14 -21 1 -32 9 -7 20 -13 25 -13 4 0 8 -5 8
-10 0 -6 -19 -1 -42 11 -50 26 -139 22 -190 -8 l-32 -18 -33 65 c-18 36 -33
70 -33 76 0 15 69 62 106 73 47 13 97 -8 106 -44 19 -79 45 -129 49 -95 1 6 2
14 3 20 0 5 10 15 20 23 19 14 18 15 -17 32 -45 21 -46 35 -7 69 61 51 153 56
190 10 21 -24 44 -16 90 32 25 26 59 55 75 65 34 22 110 25 150 7z m1628 -37
c19 -19 19 -21 3 -45 -22 -34 -33 -33 -41 4 -4 16 -19 39 -33 51 l-27 22 39
-6 c22 -4 49 -15 59 -26z m1951 -14 c66 -80 86 -173 57 -259 -13 -39 -39 -57
-53 -36 -11 18 -10 78 2 78 16 0 11 22 -10 45 -12 13 -25 52 -35 100 -25 132
-19 143 39 72z m-2529 13 c-3 -5 -11 -10 -16 -10 -6 0 -7 5 -4 10 3 6 11 10
16 10 6 0 7 -4 4 -10z m44 -24 c15 -17 4 -46 -15 -39 -9 3 -14 -1 -14 -11 0
-14 -6 -16 -37 -10 -57 12 -86 10 -90 -4 -3 -8 1 -10 12 -6 10 4 15 2 13 -7
-2 -9 8 -15 25 -17 16 -2 27 -9 27 -18 0 -8 7 -17 15 -20 8 -4 15 -12 15 -20
0 -20 -30 -5 -40 21 -5 13 -20 25 -37 28 -72 15 -85 74 -21 96 17 6 32 10 33
9 1 -2 7 -12 13 -23 9 -15 11 -16 12 -4 0 31 68 50 89 25z m305 -47 c-8 -17
-10 -13 -11 23 -1 37 0 40 9 21 7 -15 8 -30 2 -44z m141 24 c19 -29 19 -29
-18 -38 -26 -7 -27 -6 -27 34 0 46 17 48 45 4z m-2500 7 c-3 -5 -10 -10 -16
-10 -5 0 -9 5 -9 10 0 6 7 10 16 10 8 0 12 -4 9 -10z m2803 -2 c7 -7 12 -21
12 -33 0 -26 -27 -65 -43 -61 -6 1 -9 1 -4 -1 13 -8 7 -21 -13 -26 -11 -3 -20
-1 -20 4 0 4 -8 6 -17 3 -10 -2 -8 1 5 7 30 16 28 27 -5 21 l-28 -5 19 22 c14
15 22 18 27 10 5 -9 12 -8 24 4 15 16 15 17 -7 18 -18 1 -19 2 -5 6 10 3 16
11 13 18 -9 25 21 34 42 13z m-79 -21 c-2 -1 -13 -9 -24 -17 -19 -14 -19 -14
-6 3 7 9 18 17 24 17 6 0 8 -1 6 -3z m1658 -29 c-3 -8 -6 -5 -6 6 -1 11 2 17
5 13 3 -3 4 -12 1 -19z m-4904 -43 c1 -5 -6 -11 -15 -13 -11 -2 -18 3 -18 13
0 17 30 18 33 0z m324 -31 c3 -9 -12 -54 -35 -101 -22 -47 -38 -91 -36 -98 3
-8 19 -18 35 -24 47 -16 34 -28 -37 -34 -36 -2 -68 -7 -71 -11 -3 -3 -9 -54
-12 -113 l-6 -108 -71 3 c-51 2 -74 -1 -82 -11 -11 -13 -82 -208 -82 -225 0
-5 44 -31 98 -58 53 -26 114 -58 134 -71 l37 -23 -1 -80 -1 -80 59 -76 c86
-110 184 -252 184 -266 0 -4 -11 -8 -24 -8 -35 0 -127 106 -119 137 4 17 1 23
-12 23 -28 0 -115 79 -115 104 0 17 -6 22 -22 22 -22 -1 -23 2 -25 97 0 54 -3
100 -5 101 -1 2 -52 29 -113 60 -60 31 -120 64 -132 74 l-22 17 53 165 53 165
58 1 59 1 3 94 c4 124 8 139 36 139 49 0 67 13 87 57 26 60 88 143 106 143 8
0 17 -7 21 -16z m304 -28 c55 -37 74 -86 73 -181 -1 -119 -26 -178 -65 -154
-12 7 -11 13 4 39 18 29 18 30 -1 30 -11 0 -25 -7 -32 -15 -10 -12 -16 -13
-26 -4 -18 15 -8 29 20 29 12 0 40 15 62 34 l39 34 -22 21 c-12 12 -30 21 -40
20 -11 0 -13 -3 -5 -6 6 -2 12 -8 12 -13 0 -14 -132 -71 -151 -65 -85 27 -75
195 14 239 45 22 77 20 118 -8z m2667 -92 c68 -38 152 -114 152 -137 0 -7 -6
-21 -13 -31 -12 -17 -19 -11 -81 63 -37 44 -84 94 -104 111 -49 40 -33 38 46
-6z m-328 -8 c0 -3 -4 -8 -10 -11 -5 -3 -10 -1 -10 4 0 6 5 11 10 11 6 0 10
-2 10 -4z m36 -20 c3 -14 12 -27 20 -30 21 -8 17 -21 -12 -35 -25 -11 -26 -11
-23 27 2 20 0 43 -5 50 -4 7 -3 12 3 12 6 0 13 -11 17 -24z m-3118 -19 c4 -21
-25 -34 -40 -19 -8 8 -8 16 2 27 16 19 34 15 38 -8z m1571 -3 c20 -16 31 -35
31 -51 0 -19 -3 -23 -12 -16 -17 13 -100 33 -110 27 -14 -9 -9 -32 8 -42 30
-17 -9 -21 -51 -6 -22 8 -49 14 -60 14 -17 1 -14 6 18 34 45 40 93 65 124 66
12 0 35 -12 52 -26z m-505 -24 c4 -5 -12 -8 -37 -8 -26 0 -51 -3 -57 -7 -5 -3
-10 -2 -10 4 0 24 80 33 104 11z m2316 -113 c93 -114 230 -296 230 -305 0 -4
-19 -19 -42 -32 -24 -13 -77 -46 -118 -74 -41 -28 -80 -54 -86 -58 -15 -10
-131 129 -118 141 5 5 43 34 84 66 41 31 75 62 75 68 0 6 -15 16 -33 21 -31 9
-39 5 -109 -43 l-75 -53 -29 28 -30 28 23 19 c13 10 63 45 111 78 48 33 91 67
94 75 6 15 -22 43 -44 44 -6 0 -62 -32 -124 -71 -105 -67 -113 -71 -126 -53
-27 38 -16 51 110 127 91 55 126 71 140 65 9 -5 40 -37 67 -71z m-686 51 c27
1 66 -27 66 -49 0 -26 -56 -29 -105 -4 -72 37 -72 38 -40 51 17 7 37 10 45 7
8 -3 23 -5 34 -5z m2629 -5 c14 -8 7 -23 -12 -23 -34 0 -32 -18 4 -40 19 -12
35 -23 35 -25 0 -2 2 -10 5 -18 5 -10 -1 -13 -26 -9 -24 4 -30 1 -27 -9 3 -8
17 -13 32 -12 17 1 26 -3 26 -13 0 -8 9 -14 19 -14 11 0 23 -4 26 -10 4 -6 -6
-10 -24 -10 -37 0 -46 -13 -25 -34 20 -20 43 -20 51 0 5 12 7 13 14 3 5 -8 2
-21 -8 -32 -15 -16 -15 -19 -1 -33 22 -22 38 -10 38 28 0 26 2 29 15 18 12
-10 12 -16 4 -26 -6 -8 -9 -21 -5 -29 4 -10 -1 -15 -14 -15 -20 0 -28 -24 -11
-34 5 -3 23 -3 40 0 23 5 31 12 32 28 1 40 18 -15 18 -62 1 -42 -24 -102 -42
-102 -4 0 -1 10 7 22 24 34 18 47 -7 15 l-23 -27 -58 20 c-32 11 -62 18 -67
17 -11 -2 -92 226 -114 318 -8 33 -17 70 -20 82 -6 19 -2 23 26 31 31 9 71 6
92 -5z m962 -3 c47 -24 43 -24 47 -2 3 13 26 -5 97 -73 122 -118 122 -118 75
-166 -60 -62 -89 -71 -198 -63 l-93 7 -48 -46 -47 -46 6 40 c8 53 50 133 78
153 12 9 41 16 63 17 119 3 128 51 13 75 -62 13 -64 13 -120 -16 -56 -28 -58
-28 -68 -10 -6 11 -18 20 -27 20 -13 0 -13 -3 -3 -15 11 -13 10 -18 -3 -28 -8
-7 -17 -21 -19 -32 -2 -11 -10 -21 -19 -23 -21 -4 -69 35 -69 57 0 22 145 149
184 160 53 15 110 12 151 -9z m-3990 -29 c-3 -6 -14 -10 -23 -10 -15 1 -15 2
1 6 9 2 17 9 17 15 0 6 3 9 6 5 3 -3 3 -10 -1 -16z m-1113 -52 c11 -59 5 -69
-39 -69 -25 0 -52 -9 -78 -27 -22 -15 -34 -19 -26 -10 19 24 -4 23 -46 -3 -23
-14 -42 -17 -68 -13 -44 7 -53 24 -31 57 41 63 150 115 234 111 l47 -2 7 -44z
m-772 3 c0 -28 -25 -56 -44 -49 -19 7 -21 38 -4 55 18 18 48 15 48 -6z m2533
-98 c16 -30 114 -145 130 -152 4 -2 7 -8 7 -13 0 -8 -45 15 -60 31 -3 3 -14 6
-25 8 -11 2 -44 14 -74 28 l-54 24 5 65 c4 39 13 76 24 92 l19 28 5 -40 c4
-22 14 -54 23 -71z m-1496 66 c35 -33 53 -38 53 -15 0 21 13 19 28 -6 18 -29
6 -73 -30 -109 -17 -17 -33 -29 -35 -26 -3 3 3 13 13 23 17 17 16 18 -20 21
-46 4 -54 -3 -38 -28 17 -28 15 -40 -8 -40 -11 0 -20 6 -20 14 0 7 -7 19 -16
27 -27 22 -36 -10 -13 -43 l20 -28 -23 0 c-13 0 -29 -5 -36 -12 -17 -17 -27
-2 -41 69 -16 84 -2 136 42 163 47 29 86 25 124 -10z m-897 2 c0 -4 -16 -24
-36 -43 -20 -18 -45 -47 -55 -64 -12 -18 -19 -24 -19 -14 0 16 30 66 65 107
19 22 45 30 45 14z m1441 -11 c33 -18 39 -18 90 -5 41 12 63 12 91 4 36 -10
68 -42 68 -67 0 -15 -77 -61 -124 -74 -20 -6 -37 -18 -41 -29 -4 -11 -11 -18
-16 -15 -5 4 -9 1 -9 -4 0 -15 -37 -14 -46 1 -5 8 -2 9 9 5 12 -5 17 -1 17 13
0 14 -5 18 -17 13 -17 -7 -17 -6 -1 11 14 13 16 22 8 37 -24 43 -104 32 -116
-16 -7 -30 -22 -31 -76 -5 l-42 20 -21 -20 c-12 -11 -32 -40 -44 -65 -27 -54
-54 -65 -86 -35 -22 21 -23 25 -11 49 32 61 98 121 178 161 90 45 135 50 189
21z m-1341 -36 c7 -9 22 -12 39 -9 20 4 36 -1 59 -21 31 -26 32 -30 31 -98 l0
-72 -14 49 c-8 32 -25 60 -48 83 -35 32 -71 47 -50 21 15 -19 -8 -78 -38 -100
-26 -20 -59 -16 -59 7 0 7 -7 15 -15 19 -11 4 -14 13 -9 33 l7 28 -28 -25 -28
-25 16 30 c17 35 40 56 82 78 37 20 40 20 55 2z m5150 -43 c47 -23 53 -52 10
-52 -34 0 -90 -46 -90 -74 0 -9 -4 -16 -10 -16 -5 0 -10 10 -10 23 0 13 -11
34 -25 47 -29 27 -33 65 -7 79 27 16 93 13 132 -7z m-755 -39 c95 -225 110
-412 49 -604 l-15 -46 -187 -6 c-103 -4 -288 -7 -412 -7 l-225 0 -45 56 c-25
31 -80 90 -124 130 l-79 73 29 12 c16 6 61 22 99 34 166 54 625 252 800 346
50 26 91 48 92 48 2 1 10 -16 18 -36z m-2585 -13 c0 -5 -5 -10 -11 -10 -5 0
-7 5 -4 10 3 6 8 10 11 10 2 0 4 -4 4 -10z m3485 -20 c18 -7 19 -8 3 -15 -26
-10 -22 -22 10 -33 24 -9 25 -10 5 -11 -13 -1 -23 -6 -23 -13 0 -13 -29 -48
-40 -48 -4 0 -7 8 -6 18 2 28 -37 21 -44 -8 -4 -16 -13 -25 -25 -25 -16 0 -21
8 -23 38 -3 32 2 43 33 72 36 36 68 43 110 25z m-3170 -96 c21 -16 64 -9 81
13 10 12 17 11 45 -6 19 -11 77 -36 129 -57 52 -20 111 -45 132 -55 37 -19
127 -107 217 -214 49 -58 50 -60 28 -67 -12 -4 -137 -28 -277 -52 -220 -39
-614 -117 -660 -131 -18 -6 -124 21 -264 65 -182 57 -464 130 -581 150 -66 11
-190 27 -275 34 -85 8 -135 15 -110 16 41 2 43 3 15 10 -45 10 -15 18 100 24
64 3 155 18 255 41 118 28 159 34 172 26 24 -15 48 -14 48 2 0 8 19 18 45 24
43 10 45 9 45 -13 0 -48 61 -72 95 -37 12 11 16 29 13 59 l-3 43 65 16 c36 9
73 18 83 21 13 4 17 -1 17 -22 0 -53 58 -82 110 -54 23 12 41 62 29 81 -17 27
-8 38 43 54 28 8 55 15 58 15 4 0 5 -22 2 -48 -3 -36 0 -51 12 -61 18 -15 57
-8 80 15 21 20 20 78 0 99 -22 22 -14 27 91 63 132 44 129 44 136 -2 3 -21 14
-45 24 -52z m-2115 45 c0 -5 -4 -9 -10 -9 -5 0 -10 7 -10 16 0 8 5 12 10 9 6
-3 10 -10 10 -16z m-432 -48 c4 -41 -11 -60 -44 -53 -21 4 -25 9 -19 29 3 14
9 38 12 55 5 27 7 28 27 15 12 -9 22 -27 24 -46z m5485 -1 c3 -11 1 -20 -4
-20 -5 0 -9 9 -9 20 0 11 2 20 4 20 2 0 6 -9 9 -20z m-113 1 c0 -5 3 -16 6
-25 4 -11 1 -16 -10 -16 -10 0 -16 9 -16 25 0 14 5 25 10 25 6 0 10 -4 10 -9z
m-4140 -31 c0 -5 -5 -10 -11 -10 -8 0 -8 -4 0 -14 9 -10 8 -15 -4 -20 -25 -9
-17 -25 18 -35 21 -6 25 -10 12 -10 -12 -1 -26 -6 -31 -11 -6 -6 -31 -11 -55
-11 -123 0 -138 2 -148 19 -6 9 -11 12 -11 6 0 -7 -38 -14 -101 -18 -55 -4
-129 -16 -164 -27 -75 -23 -171 -85 -219 -141 -67 -78 -127 -219 -138 -323
l-3 -30 -22 36 c-29 46 -29 70 2 167 62 196 211 330 439 392 123 34 208 19
275 -48 l25 -25 15 23 c33 47 80 90 100 90 12 0 21 -4 21 -10z m2188 -12 c-6
-18 -229 -179 -239 -172 -17 10 -9 20 54 66 144 106 194 135 185 106z m2617
-45 c-11 -7 -26 -13 -34 -13 -12 1 -10 6 8 20 12 11 28 17 34 13 6 -4 3 -11
-8 -20z m-5632 -32 c13 -13 -2 -35 -44 -66 -23 -16 -45 -40 -50 -52 -9 -25
-35 -31 -41 -11 -3 8 -13 5 -33 -10 -33 -27 -45 -28 -45 -4 0 24 43 114 62
130 32 26 128 34 151 13z m5112 -7 l20 -25 48 21 c28 13 72 22 105 23 50 2 64
-3 110 -32 88 -56 128 -154 91 -223 -8 -14 -28 -41 -46 -61 l-31 -36 -54 21
c-41 17 -77 22 -157 23 -68 0 -106 5 -108 12 -2 6 4 14 14 17 10 3 6 4 -9 2
l-27 -3 24 29 c27 32 33 86 13 106 -7 7 -24 12 -39 12 -15 0 -32 6 -39 14 -6
8 -21 16 -33 18 -28 4 -48 55 -27 68 8 6 25 10 36 10 12 0 27 7 34 15 19 23
52 18 75 -11z m-2045 7 c0 -5 -26 -28 -57 -51 -92 -68 -134 -112 -127 -132 8
-25 -8 -23 -34 5 l-22 23 83 60 c155 114 157 115 157 95z m2697 -48 c7 -17 0
-31 -82 -171 -44 -76 -48 -87 -38 -113 10 -25 9 -31 -7 -39 -28 -15 -38 -12
-55 13 -22 34 -5 82 73 215 66 112 94 136 109 95z m-955 -42 c15 -17 28 -40
28 -51 0 -17 7 -20 40 -20 58 0 72 -27 75 -143 3 -98 -8 -137 -49 -169 -27
-23 -36 -22 -36 1 0 19 -23 35 -34 24 -3 -4 -6 -14 -6 -24 0 -16 -36 -33 -51
-23 -13 8 -58 94 -49 94 5 0 11 -4 15 -10 3 -5 13 -6 21 -3 11 4 14 14 10 34
-4 22 1 34 26 59 17 17 29 33 27 35 -3 2 -26 -1 -52 -6 -35 -8 -51 -18 -64
-40 -10 -16 -21 -29 -26 -29 -9 0 0 190 9 199 2 3 10 -1 16 -7 14 -14 48 -16
48 -3 0 17 -30 40 -45 35 -10 -4 -15 0 -16 12 0 11 -2 32 -4 48 -4 28 -4 28
43 23 36 -4 53 -12 74 -36z m-1702 5 c0 -6 -176 -136 -184 -136 -22 0 5 25 85
79 87 59 99 66 99 57z m-3323 -158 c-3 -7 -5 -2 -5 12 0 14 2 19 5 13 2 -7 2
-19 0 -25z m-257 -22 c0 -8 -5 -18 -11 -22 -14 -8 -33 11 -25 25 10 16 36 13
36 -3z m3400 -121 c35 -36 58 -65 50 -65 -8 0 -64 -5 -125 -10 -238 -21 -965
-57 -955 -48 8 9 181 42 575 113 204 37 372 69 374 71 9 9 19 2 81 -61z m2357
-7 c15 -6 32 -10 37 -9 19 4 47 -12 65 -38 l19 -27 -61 4 c-53 3 -65 1 -80
-16 -18 -20 -18 -21 7 -38 20 -12 25 -22 20 -38 -12 -38 -22 -45 -48 -33 -14
7 -22 15 -20 19 2 3 0 9 -5 12 -5 4 -13 2 -16 -4 -4 -6 -15 -8 -26 -5 -10 4
-19 2 -19 -2 0 -14 -53 -9 -58 5 -2 7 4 11 19 10 35 -4 33 18 -3 35 -25 12
-35 13 -41 4 -6 -8 -7 -7 -4 3 2 8 0 23 -5 32 -7 14 0 22 34 39 39 20 133 56
150 58 4 1 19 -4 35 -11z m-4992 -37 c245 -57 665 -122 915 -141 260 -20 764
-23 1085 -6 425 22 730 34 1195 46 714 19 1030 37 1098 65 32 14 33 14 58 -24
28 -43 124 -264 124 -287 0 -7 -8 -14 -17 -14 -10 0 -76 -7 -148 -15 -521 -60
-439 -57 -1248 -53 -737 3 -748 3 -725 22 64 53 290 129 463 155 71 11 392 49
635 76 l135 14 -305 -4 c-342 -5 -576 -25 -719 -61 -95 -23 -253 -94 -375
-168 l-58 -36 -517 0 c-580 0 -704 8 -1056 66 -245 41 -393 77 -560 134 -174
60 -217 80 -211 97 4 8 6 25 6 39 0 21 3 23 33 17 31 -6 32 -6 15 14 -22 24
-22 36 -2 74 10 20 20 28 32 25 9 -3 76 -19 147 -35z m5237 -28 c10 -9 18 -20
18 -24 0 -4 -56 -102 -125 -217 -92 -156 -137 -221 -173 -254 -28 -24 -63 -70
-81 -104 -44 -83 -74 -109 -161 -140 -82 -29 -115 -50 -65 -41 28 5 29 4 10
-10 -22 -16 -97 -10 -103 8 -2 5 -8 7 -13 3 -5 -3 -19 -2 -31 2 -32 10 -6 20
72 28 53 6 71 13 95 36 17 16 48 35 70 42 37 12 44 21 88 108 27 52 57 100 68
108 10 7 19 19 19 27 0 14 279 445 288 445 3 0 14 -7 24 -17z m154 -84 c8 -14
-18 -31 -30 -19 -9 9 0 30 14 30 5 0 12 -5 16 -11z m-827 -51 c-9 -16 -14 -19
-17 -9 -2 7 2 17 9 22 20 13 21 11 8 -13z m311 -33 c0 -7 -6 -15 -12 -18 -7
-3 7 -2 31 1 32 4 42 2 37 -6 -9 -15 -68 -16 -83 -1 -15 15 -5 49 13 42 8 -3
14 -11 14 -18z m-5159 -105 c21 -41 34 -79 30 -83 -5 -5 -21 -7 -37 -5 -25 3
-32 12 -56 70 -30 71 -28 101 5 96 14 -2 32 -26 58 -78z m4896 -12 c-3 -8 -6
-5 -6 6 -1 11 2 17 5 13 3 -3 4 -12 1 -19z m-4706 -15 c13 -17 13 -17 -6 -3
-11 8 -22 16 -24 17 -2 2 0 3 6 3 6 0 17 -8 24 -17z m4862 -12 c10 -7 17 -22
17 -32 0 -23 -7 -24 -26 -4 -20 19 -58 20 -51 1 4 -11 -2 -12 -36 -4 -68 14
-70 15 -50 35 22 22 121 25 146 4z m-5198 -21 c8 -26 -1 -40 -26 -40 -25 0
-35 25 -19 45 17 21 37 19 45 -5z m263 -89 c31 -47 34 -49 89 -56 60 -7 83
-18 83 -40 0 -15 -203 -32 -239 -20 -34 11 -19 29 32 39 49 9 62 22 26 28 -26
4 -84 72 -75 87 17 27 53 11 84 -38z m4754 -12 c-13 -10 -38 -20 -55 -23 -18
-3 -86 -14 -152 -26 -206 -36 -277 -40 -765 -44 -542 -5 -451 12 235 44 345
16 717 50 734 66 8 7 17 11 20 8 3 -3 -4 -14 -17 -25z m1018 -134 c26 -32 -13
-81 -47 -59 -35 22 -23 74 17 74 10 0 23 -7 30 -15z m-919 -22 c10 -10 4 -16
-26 -29 -108 -45 -1629 -57 -1965 -16 -47 6 -55 10 -58 29 l-3 23 753 3 c1172
5 1285 4 1299 -10z m-2837 -29 c26 -10 14 -28 -25 -36 -53 -11 -2001 -10
-2012 1 -5 5 -7 17 -4 25 5 13 33 16 164 19 246 6 1858 -2 1877 -9z m-2091
-31 c19 -11 -9 -23 -57 -23 -51 0 -86 17 -69 34 7 7 111 -2 126 -11z m5275
-11 c4 -26 -21 -40 -42 -23 -8 7 -12 21 -9 32 8 28 47 22 51 -9z m-650 -74
c-5 -15 -92 -23 -117 -12 -11 6 0 10 34 14 82 11 87 11 83 -2z m-3567 -221 c7
-212 13 -242 48 -235 14 3 15 28 12 221 l-3 217 56 0 c31 0 56 -3 56 -7 11
-495 9 -518 -33 -548 -67 -47 -203 20 -226 113 -5 20 -12 128 -15 239 l-5 202
27 4 c15 2 38 4 52 3 l25 -1 6 -208z m3349 199 c0 -8 -8 -23 -17 -34 -15 -17
-38 -23 -123 -32 -58 -7 -107 -14 -110 -17 -3 -2 -5 -118 -5 -255 -1 -280 6
-255 -72 -272 l-33 -8 0 139 c0 135 25 461 36 472 7 7 131 17 242 19 64 2 82
-1 82 -12z m-3655 -5 c15 -25 -233 -27 -258 -2 -8 8 23 11 120 11 73 0 134 -4
138 -9z m-610 -11 c-4 -6 -73 -10 -175 -10 -102 0 -171 4 -175 10 -4 7 57 10
175 10 118 0 179 -3 175 -10z m3865 -17 c0 -16 -5 -57 -10 -93 -12 -76 -14
-360 -4 -449 l7 -61 -36 -15 c-20 -8 -40 -15 -45 -15 -5 0 -17 73 -26 163 -17
147 -17 177 -5 322 l14 160 45 6 c25 3 48 7 53 7 4 1 7 -10 7 -25z m-2609 -33
c38 -12 69 -23 69 -26 0 -15 -43 -86 -55 -91 -27 -10 -15 -28 37 -53 29 -14
61 -37 71 -51 26 -36 27 -128 2 -196 -17 -46 -17 -60 -7 -115 29 -156 31 -150
-33 -124 -34 15 -35 17 -35 70 0 103 -42 146 -53 55 -4 -29 -9 -54 -12 -57 -2
-3 -23 3 -45 13 l-40 18 0 289 c0 329 -11 301 101 268z m2434 -37 c-4 -32 -20
-109 -36 -171 -16 -62 -29 -122 -29 -133 0 -11 18 -74 41 -140 23 -65 39 -125
36 -133 -7 -18 -87 -38 -92 -23 -2 7 -11 52 -20 102 -9 49 -19 93 -22 98 -14
22 -23 -27 -23 -125 l0 -106 -32 -11 c-17 -6 -34 -9 -37 -6 -3 4 -7 147 -9
319 -4 313 -4 314 17 320 11 3 31 9 43 12 21 6 21 6 15 -132 -6 -126 -5 -136
8 -112 8 14 25 83 37 152 21 116 25 127 48 135 57 21 62 16 55 -46z m-3388 17
c34 -17 78 -31 107 -33 56 -4 64 -13 43 -54 -21 -40 -65 -78 -118 -102 -25
-12 -61 -34 -80 -50 l-34 -29 3 -258 c2 -142 6 -263 9 -267 3 -6 149 -6 352
-2 l346 7 18 -53 c27 -78 123 -236 181 -297 83 -88 208 -170 276 -182 21 -3
35 -11 35 -20 0 -8 8 -16 19 -18 11 -3 16 0 12 7 -4 6 0 11 9 11 10 0 15 -9
14 -27 -2 -57 38 -301 53 -320 5 -7 7 -16 4 -21 -9 -15 40 -42 74 -42 21 0 29
-4 24 -11 -5 -8 -30 -10 -77 -6 -38 3 -71 7 -73 9 -6 6 -54 282 -54 312 0 35
-7 46 -35 62 -175 95 -211 120 -294 198 -62 60 -181 216 -216 286 -10 19 -19
36 -20 38 -1 2 -163 3 -359 2 l-356 0 -1 32 c-1 18 -4 98 -8 178 l-6 145 -30
0 c-28 0 -30 -2 -29 -40 0 -22 3 -113 5 -202 l3 -163 363 0 363 0 0 -25 0 -25
-394 0 -395 0 -5 53 c-3 28 -8 133 -11 231 -6 163 -8 181 -26 194 -26 18 -24
40 5 54 24 10 25 14 19 74 -9 94 12 137 117 249 49 52 91 103 95 114 3 12 8
21 11 21 2 0 30 -13 61 -30z m4168 -53 c42 -42 51 -74 32 -120 -52 -124 -239
-51 -219 86 6 38 53 67 111 67 36 0 49 -6 76 -33z m-2987 -16 c37 -16 173 -72
302 -125 296 -120 284 -114 290 -156 4 -27 10 -35 25 -35 21 0 32 -33 20 -63
-5 -13 -11 -10 -32 17 -15 18 -47 43 -72 55 -25 11 -60 36 -77 54 -33 33 -50
40 -56 20 -3 -7 -41 4 -114 32 -60 23 -163 62 -229 85 -143 51 -175 65 -175
77 0 17 31 68 41 68 6 0 41 -13 77 -29z m1936 -105 c-4 -40 -10 -62 -15 -55
-6 10 -10 9 -15 -5 -4 -11 -2 -21 7 -27 11 -7 11 -9 -3 -9 -29 0 -38 -34 -38
-147 0 -116 12 -153 51 -153 17 0 19 -7 19 -60 0 -56 -2 -60 -27 -66 -31 -8
-42 4 -84 91 -36 76 -45 155 -30 269 17 123 44 190 89 221 20 14 40 21 45 16
4 -4 5 -38 1 -75z m-3564 39 c0 -8 -9 -15 -20 -15 -11 0 -20 7 -20 15 0 8 9
15 20 15 11 0 20 -7 20 -15z m3050 8 c0 -4 -24 -46 -54 -93 -50 -79 -115 -226
-130 -295 -5 -21 6 -82 34 -190 22 -88 40 -165 40 -172 0 -12 -89 -44 -102
-37 -3 2 -18 55 -33 117 -33 139 -40 152 -55 112 -7 -20 -9 -66 -4 -142 7
-125 11 -117 -67 -136 -24 -6 -27 -4 -33 26 -3 17 -6 174 -7 347 l-2 315 37 9
c33 7 41 15 58 57 20 48 21 49 65 49 54 0 54 4 -1 -137 -40 -104 -56 -178 -37
-172 7 3 25 34 40 69 16 36 49 108 74 161 43 91 47 97 84 107 46 12 93 15 93
5z m332 -240 c-4 -195 -4 -199 23 -273 15 -41 29 -83 32 -92 4 -13 -7 -20 -52
-33 -31 -9 -58 -15 -60 -13 -11 10 -25 242 -25 396 l0 173 43 19 c23 11 42 20
43 20 0 0 -2 -89 -4 -197z m1536 134 c44 -21 65 -93 42 -138 -15 -27 -62 -49
-106 -49 -28 0 -44 8 -71 35 -30 30 -35 40 -29 67 17 88 86 124 164 85z
m-3216 -18 c95 -35 122 -56 142 -113 16 -43 33 -203 38 -346 2 -92 2 -92 -56
-70 -20 7 -23 20 -34 142 -19 203 -49 318 -81 318 -5 0 -10 -59 -13 -132 l-4
-132 27 -25 c19 -19 29 -40 34 -75 l7 -49 -31 6 c-17 4 -54 16 -82 29 l-51 22
8 95 c11 117 12 284 2 329 -4 18 -3 32 2 32 5 0 46 -14 92 -31z m1548 12 c0
-5 -16 -60 -35 -122 -19 -63 -35 -125 -35 -139 0 -14 18 -80 40 -145 52 -153
51 -160 -2 -173 -24 -6 -46 -8 -49 -4 -3 4 -14 39 -23 77 -32 132 -37 146 -49
142 -8 -3 -12 -42 -12 -132 l0 -128 -34 -9 c-18 -5 -35 -7 -38 -4 -3 2 -6 134
-6 293 l-2 288 35 17 35 18 3 -115 c1 -63 6 -115 11 -115 4 0 16 30 26 68 30
114 54 168 78 180 27 13 57 15 57 3z m-902 -83 c5 -7 13 -68 17 -135 6 -116 6
-123 -12 -123 -11 0 -24 -5 -31 -12 -19 -19 -21 -7 -10 52 11 62 5 178 -12
209 -9 19 -8 21 13 21 14 0 29 -6 35 -12z m-274 -84 c93 -39 113 -55 137 -110
22 -48 13 -98 -27 -151 l-25 -33 26 -37 c22 -33 25 -48 25 -120 0 -46 -3 -83
-7 -83 -5 0 -26 11 -48 23 l-40 23 -8 79 c-8 85 -22 109 -62 103 -18 -3 -20
-9 -16 -70 3 -64 2 -68 -19 -68 -12 0 -30 5 -41 10 -18 10 -19 24 -19 246 l0
235 23 -7 c12 -4 57 -22 101 -40z m2421 -34 c8 0 15 -4 15 -10 0 -5 10 -10 22
-10 l22 0 -21 -15 c-18 -13 -20 -20 -13 -45 9 -32 -5 -41 -28 -18 -9 9 -17 7
-35 -10 -32 -30 -39 -28 -31 12 4 24 1 42 -10 58 -22 31 -20 38 8 38 13 0 27
8 31 18 6 16 7 16 16 0 6 -10 17 -18 24 -18z m-3285 -178 c384 -153 739 -298
885 -360 77 -33 173 -70 214 -83 40 -13 76 -30 78 -37 3 -7 -5 -24 -18 -38
-18 -19 -30 -24 -49 -19 -51 13 -398 144 -670 255 -52 21 -224 90 -383 154
-307 123 -336 137 -361 161 -21 22 -20 37 4 63 19 20 23 21 48 8 15 -8 129
-55 252 -104z m3025 31 c-4 -10 -10 -28 -13 -41 -6 -29 -29 -41 -230 -113
-479 -173 -1240 -409 -1320 -409 -24 0 -30 9 -34 49 -3 22 4 25 87 47 50 13
268 82 485 154 928 304 1004 328 1024 329 4 1 5 -7 1 -16z m645 -13 c19 -12 9
-21 -32 -29 -26 -6 -33 -12 -31 -29 3 -21 -1 -22 -70 -22 -102 0 -146 9 -158
32 -6 11 -7 24 -2 28 19 19 268 36 293 20z m-2501 -192 c1 -99 -2 -95 96 -100
54 -3 63 -15 51 -64 -6 -23 -10 -24 -86 -24 -43 0 -82 5 -85 10 -4 6 -3 90 1
188 9 184 21 179 23 -10z m-1597 120 c-17 -17 -47 9 -30 29 10 12 13 12 27 -1
11 -12 12 -19 3 -28z m-92 -3 c0 -18 -5 -25 -19 -25 -11 0 -21 6 -24 13 -7 20
4 37 24 37 14 0 19 -7 19 -25z m4190 -85 c0 -5 -11 -10 -24 -10 -39 0 -73 -17
-79 -39 -4 -16 -13 -21 -36 -21 -17 0 -31 4 -31 10 0 5 -10 10 -22 10 -64 1
-195 16 -205 23 -40 26 0 31 270 35 79 1 127 -2 127 -8z m-3551 -185 c50 -70
163 -186 221 -228 40 -28 -87 40 -135 73 -54 37 -125 118 -160 181 l-26 49 23
0 c18 0 37 -18 77 -75z m3782 38 c10 -9 9 -16 -1 -28 -11 -13 -79 -15 -561
-15 -466 0 -549 2 -549 14 0 23 64 28 465 36 498 10 631 8 646 -7z m-3685 -18
c30 -14 53 -29 50 -34 -3 -5 1 -12 10 -15 10 -4 13 -2 7 7 -4 6 4 4 17 -5 14
-9 24 -21 23 -27 -4 -15 14 -14 20 2 2 6 8 9 12 5 5 -5 0 -24 -11 -44 -12 -23
-20 -30 -22 -19 -2 8 -8 13 -13 9 -5 -3 -7 -10 -4 -15 4 -5 1 -9 -6 -9 -8 0
-7 -5 2 -17 13 -15 12 -15 -6 -3 -24 15 -76 78 -55 66 8 -5 1 4 -16 20 -29 27
-80 104 -68 104 3 0 30 -11 60 -25z m2364 -34 c0 -5 -11 -12 -25 -15 -14 -4
-24 -10 -21 -15 3 -4 -8 -23 -24 -41 -17 -19 -30 -37 -30 -41 0 -4 -3 -15 -7
-25 -5 -14 -2 -16 20 -12 36 7 34 -4 -5 -34 -51 -38 -103 -58 -145 -57 -21 1
-30 3 -20 6 11 3 17 14 17 31 -1 27 -1 27 -18 7 -9 -11 -27 -21 -40 -22 l-23
-2 23 19 c33 27 19 32 -53 20 -72 -11 -248 -14 -275 -3 -12 4 26 18 107 39 68
17 165 44 214 59 50 14 128 37 175 51 47 14 94 29 105 34 26 11 25 11 25 1z
m-2166 -78 c-9 23 8 21 29 -3 17 -20 43 -28 32 -10 -8 13 4 13 44 -1 30 -11
41 -32 21 -44 -17 -10 -11 -44 11 -66 20 -20 21 -20 34 -2 13 16 12 20 -6 36
-12 10 -16 17 -8 17 7 0 21 -8 31 -17 13 -11 22 -14 26 -7 4 6 14 14 22 18 8
3 3 4 -12 1 -26 -5 -47 10 -33 23 4 4 10 1 12 -6 3 -6 9 -10 14 -6 5 3 30 -2
55 -12 31 -12 41 -20 32 -25 -8 -6 -2 -9 19 -9 28 0 32 -3 31 -28 -1 -20 -6
-28 -19 -29 -11 -1 -19 2 -19 8 0 5 -9 9 -20 9 -12 0 -20 7 -20 18 -1 16 -1
16 -11 0 -5 -10 -22 -18 -37 -19 -24 0 -25 -1 -7 -8 18 -7 17 -9 -10 -15 -40
-8 -155 -5 -155 5 0 5 -6 6 -13 3 -7 -2 -21 2 -32 11 -11 8 -39 29 -63 46 -49
34 -50 56 -3 51 34 -4 53 20 32 41 -6 6 -11 18 -11 26 0 11 4 10 20 -4 18 -17
20 -17 14 -2z m456 -149 c2 -3 -7 -4 -22 -2 -15 2 -30 7 -34 11 -3 3 6 4 22 1
16 -3 31 -7 34 -10z m2115 6 c3 -5 -1 -10 -10 -10 -9 0 -13 5 -10 10 3 6 8 10
10 10 2 0 7 -4 10 -10z m-2045 -30 c8 -5 11 -10 5 -10 -5 0 -17 5 -25 10 -8 5
-10 10 -5 10 6 0 17 -5 25 -10z m55 -19 c16 -6 11 -9 -23 -12 -37 -4 -41 -3
-26 8 20 15 21 15 49 4z m-1767 -33 c5 -39 -33 -58 -60 -30 -17 16 -18 23 -8
41 17 33 64 25 68 -11z m1692 28 c0 -3 -4 -8 -10 -11 -5 -3 -10 -1 -10 4 0 6
5 11 10 11 6 0 10 -2 10 -4z m1600 -20 c0 -43 -42 -70 -165 -105 l-60 -18 -8
-189 c-5 -104 -10 -191 -12 -193 -5 -4 -163 27 -374 76 -110 25 -157 39 -145
44 11 4 15 8 9 8 -5 1 -3 6 5 11 11 7 4 10 -27 10 -25 0 -43 5 -43 11 0 6 10
9 23 6 12 -3 106 -25 210 -48 103 -24 187 -47 187 -52 0 -5 -11 -6 -25 -3 -14
4 -25 2 -25 -4 0 -5 11 -10 24 -10 13 0 32 -3 42 -7 11 -4 15 -3 11 4 -10 15
42 26 58 13 10 -9 16 -7 24 9 6 11 11 24 10 28 -1 4 -1 74 0 154 l1 147 48 7
c26 3 57 13 69 21 27 17 37 18 27 2 -5 -9 -2 -9 9 1 29 24 19 29 -50 26 -60
-2 -63 -2 -28 6 22 6 46 8 55 7 8 -2 42 11 75 29 73 39 75 39 75 9z m-1645
-15 c-6 -5 -25 10 -25 20 0 5 6 4 14 -3 8 -7 12 -15 11 -17z m2298 12 c4 -3 2
-12 -4 -20 -9 -10 -15 -10 -25 -2 -8 6 -11 15 -8 20 6 11 28 12 37 2z m-1966
-240 c64 -76 122 -141 127 -145 19 -13 39 15 128 181 43 81 65 99 39 34 -20
-50 -14 -74 8 -35 8 13 11 14 11 2 0 -11 4 -10 16 5 16 19 16 19 9 -5 -18 -58
-187 -305 -205 -298 -4 2 -47 53 -96 114 -49 60 -108 132 -131 160 l-43 49
-30 -17 c-16 -9 -30 -13 -30 -8 0 6 5 10 10 10 6 0 10 5 10 11 0 5 -6 7 -12 3
-7 -4 5 12 27 35 21 22 40 41 42 41 1 0 55 -62 120 -137z m-237 -4 c-53 -45
-67 -51 -74 -34 -6 18 51 58 71 50 7 -2 15 0 18 5 4 6 9 10 13 10 4 0 -9 -14
-28 -31z m-90 -43 c0 -2 -7 -7 -16 -10 -8 -3 -12 -2 -9 4 6 10 25 14 25 6z
m204 -45 c17 -19 17 -20 -6 -35 -25 -16 -154 -76 -164 -76 -4 0 -1 6 5 14 10
12 8 15 -6 19 -10 2 -6 3 10 2 15 -1 27 2 27 6 0 4 6 9 13 12 6 2 1 2 -13 0
-14 -3 -23 -2 -20 0 9 9 125 77 131 77 3 0 14 -9 23 -19z m617 -36 c31 -13 32
-14 9 -14 -14 0 -41 7 -60 14 -33 13 -33 14 -9 14 15 1 42 -6 60 -14z m-806
-83 c-3 -3 -11 0 -18 7 -9 10 -8 11 6 5 10 -3 15 -9 12 -12z m-128 -28 c-3 -3
-12 -4 -19 -1 -8 3 -5 6 6 6 11 1 17 -2 13 -5z"/>
<path d="M4490 8275 c0 -8 9 -15 20 -15 24 0 27 15 4 24 -22 9 -24 8 -24 -9z"/>
<path d="M4668 8268 c-9 -24 4 -38 33 -38 22 0 29 5 29 19 0 28 -53 44 -62 19z"/>
<path d="M5037 8264 c-8 -8 3 -34 14 -34 5 0 9 9 9 20 0 19 -11 26 -23 14z"/>
<path d="M4970 8230 c0 -11 4 -20 9 -20 13 0 32 26 24 33 -13 14 -33 6 -33
-13z"/>
<path d="M4753 8224 c-8 -22 5 -46 24 -42 27 5 29 44 3 51 -13 3 -23 0 -27 -9z"/>
<path d="M4857 8234 c-4 -4 -7 -16 -7 -26 0 -14 6 -19 23 -16 14 2 22 10 22
23 0 20 -25 32 -38 19z"/>
<path d="M4540 8196 c0 -13 7 -26 15 -30 11 -4 15 2 15 24 0 20 -5 30 -15 30
-9 0 -15 -9 -15 -24z"/>
<path d="M5887 8023 c-4 -3 -7 -17 -7 -30 0 -16 6 -23 20 -23 16 0 20 7 20 30
0 28 -17 40 -33 23z"/>
<path d="M6001 7984 c0 -11 3 -14 6 -6 3 7 2 16 -1 19 -3 4 -6 -2 -5 -13z"/>
<path d="M5897 7913 c-4 -3 -7 -19 -7 -35 0 -35 23 -34 28 1 4 25 -10 46 -21
34z"/>
<path d="M5977 7884 c-8 -8 1 -24 14 -24 5 0 9 7 9 15 0 15 -12 20 -23 9z"/>
<path d="M5882 7785 c2 -14 8 -26 13 -26 6 0 11 12 13 26 2 18 -1 25 -13 25
-12 0 -15 -7 -13 -25z"/>
<path d="M5887 7687 c-3 -8 -2 -19 2 -26 11 -16 43 -2 39 18 -4 20 -34 26 -41
8z"/>
<path d="M5895 7611 c-7 -12 12 -24 25 -16 11 7 4 25 -10 25 -5 0 -11 -4 -15
-9z"/>
<path d="M5980 7611 c0 -6 5 -13 10 -16 6 -3 10 1 10 9 0 9 -4 16 -10 16 -5 0
-10 -4 -10 -9z"/>
<path d="M5887 7563 c-14 -13 -6 -33 13 -33 11 0 20 4 20 9 0 13 -26 32 -33
24z"/>
<path d="M5885 7471 c-8 -25 1 -41 21 -41 11 0 14 8 12 27 -4 33 -24 41 -33
14z"/>
<path d="M5878 7238 c-7 -20 3 -88 13 -88 5 0 9 23 9 50 0 46 -12 66 -22 38z"/>
<path d="M3506 7398 c-81 -53 -89 -76 -13 -39 50 26 128 91 107 90 -8 0 -51
-23 -94 -51z"/>
<path d="M5486 7741 c-4 -7 -5 -15 -2 -18 9 -9 19 4 14 18 -4 11 -6 11 -12 0z"/>
<path d="M5450 7596 c0 -2 7 -9 15 -16 12 -10 15 -10 15 4 0 9 -7 16 -15 16
-8 0 -15 -2 -15 -4z"/>
<path d="M5442 7481 c2 -7 7 -12 11 -12 12 1 9 15 -3 20 -7 2 -11 -2 -8 -8z"/>
<path d="M5450 7360 c0 -5 5 -10 10 -10 6 0 10 5 10 10 0 6 -4 10 -10 10 -5 0
-10 -4 -10 -10z"/>
<path d="M5545 7300 c3 -5 10 -10 16 -10 5 0 9 5 9 10 0 6 -7 10 -16 10 -8 0
-12 -4 -9 -10z"/>
<path d="M4522 7733 c5 -26 38 -29 38 -4 0 15 -6 21 -21 21 -14 0 -19 -5 -17
-17z"/>
<path d="M4592 7738 c5 -15 55 -35 64 -25 4 4 1 13 -6 22 -15 18 -64 21 -58 3z"/>
<path d="M4590 7670 c0 -25 4 -30 25 -30 14 0 28 0 33 0 18 0 4 25 -18 31 -24
7 -24 7 -2 8 33 2 27 21 -8 21 -27 0 -30 -3 -30 -30z"/>
<path d="M4520 7676 c0 -7 7 -19 15 -26 19 -16 41 1 32 24 -8 20 -47 21 -47 2z"/>
<path d="M4524 7615 c-8 -19 2 -30 34 -40 19 -6 23 -4 20 10 -1 10 -13 24 -25
32 -20 14 -23 14 -29 -2z"/>
<path d="M4604 7607 c-8 -23 4 -37 32 -37 17 0 24 5 24 20 0 11 -4 20 -9 20
-5 0 -16 3 -25 6 -9 4 -18 0 -22 -9z"/>
<path d="M4596 7535 c-6 -16 28 -40 44 -30 15 9 12 32 -6 39 -24 9 -31 7 -38
-9z"/>
<path d="M6340 7590 c0 -20 5 -30 15 -30 10 0 15 10 15 30 0 20 -5 30 -15 30
-10 0 -15 -10 -15 -30z"/>
<path d="M6406 7542 c-3 -6 1 -15 8 -21 8 -7 17 -8 20 -3 3 6 -1 15 -8 21 -8
7 -17 8 -20 3z"/>
<path d="M7590 7585 c-10 -12 -10 -15 4 -15 9 0 16 7 16 15 0 8 -2 15 -4 15
-2 0 -9 -7 -16 -15z"/>
<path d="M4025 7480 c3 -5 10 -10 16 -10 5 0 9 5 9 10 0 6 -7 10 -16 10 -8 0
-12 -4 -9 -10z"/>
<path d="M4040 7318 c0 -18 5 -28 15 -28 19 0 19 11 0 36 -14 18 -14 18 -15
-8z"/>
<path d="M4615 7320 c-3 -6 1 -13 10 -16 19 -8 30 0 20 15 -8 14 -22 14 -30 1z"/>
<path d="M5078 7353 c7 -3 16 -2 19 1 4 3 -2 6 -13 5 -11 0 -14 -3 -6 -6z"/>
<path d="M6518 7220 c-4 -62 -1 -70 23 -70 16 0 19 7 19 48 0 43 -12 72 -31
72 -4 0 -9 -23 -11 -50z"/>
<path d="M6457 7253 c-13 -12 -7 -51 9 -57 24 -9 24 -9 24 29 0 33 -16 46 -33
28z"/>
<path d="M6522 7098 c2 -30 7 -43 18 -43 24 0 21 79 -3 83 -16 3 -18 -2 -15
-40z"/>
<path d="M6452 7113 c5 -26 38 -29 38 -4 0 15 -6 21 -21 21 -14 0 -19 -5 -17
-17z"/>
<path d="M6450 7041 c0 -11 26 -22 34 -14 12 12 5 23 -14 23 -11 0 -20 -4 -20
-9z"/>
<path d="M6520 7006 c0 -38 9 -49 29 -37 18 12 10 65 -11 69 -14 3 -18 -4 -18
-32z"/>
<path d="M6457 6994 c-13 -13 -7 -24 14 -24 11 0 19 5 17 12 -5 14 -22 21 -31
12z"/>
<path d="M6513 6908 c1 -18 5 -32 10 -30 4 1 12 2 17 2 6 0 10 14 10 30 0 23
-5 30 -19 30 -15 0 -19 -7 -18 -32z"/>
<path d="M6510 6819 c0 -20 21 -49 35 -49 21 0 27 17 15 40 -11 21 -50 28 -50
9z"/>
<path d="M6580 6637 c0 -32 9 -57 21 -57 15 0 10 57 -6 70 -13 11 -15 8 -15
-13z"/>
<path d="M6530 6630 c0 -5 5 -10 10 -10 6 0 10 5 10 10 0 6 -4 10 -10 10 -5 0
-10 -4 -10 -10z"/>
<path d="M6637 6565 c-7 -16 8 -29 23 -20 10 6 2 35 -10 35 -4 0 -10 -7 -13
-15z"/>
<path d="M3227 7143 c-15 -15 -6 -43 13 -43 11 0 20 6 20 14 0 17 -24 38 -33
29z"/>
<path d="M3210 7031 c0 -24 18 -37 31 -24 13 13 1 43 -17 43 -8 0 -14 -9 -14
-19z"/>
<path d="M3190 6850 c0 -5 5 -10 10 -10 6 0 10 5 10 10 0 6 -4 10 -10 10 -5 0
-10 -4 -10 -10z"/>
<path d="M3200 6746 c0 -23 22 -41 34 -29 3 4 6 17 6 30 0 16 -6 23 -20 23
-14 0 -20 -7 -20 -24z"/>
<path d="M3200 6651 c0 -19 23 -35 34 -24 14 15 5 43 -14 43 -13 0 -20 -7 -20
-19z"/>
<path d="M3200 6560 c0 -15 7 -20 25 -20 18 0 25 5 25 20 0 15 -7 20 -25 20
-18 0 -25 -5 -25 -20z"/>
<path d="M3210 6500 c-18 -11 -4 -42 17 -38 10 2 19 10 21 19 4 19 -19 31 -38
19z"/>
<path d="M3202 6418 c5 -15 37 -18 41 -3 1 6 -9 12 -22 13 -16 3 -22 -1 -19
-10z"/>
<path d="M3202 6353 c2 -10 14 -19 26 -21 19 -3 23 1 20 15 -2 10 -14 19 -26
21 -19 3 -23 -1 -20 -15z"/>
<path d="M3206 6284 c-10 -26 -7 -34 14 -34 15 0 20 7 20 25 0 28 -24 34 -34
9z"/>
<path d="M3700 7180 c0 -16 5 -21 23 -18 12 2 22 10 22 18 0 8 -10 16 -22 18
-18 3 -23 -2 -23 -18z"/>
<path d="M3800 7155 c0 -8 -4 -15 -10 -15 -5 0 -10 -4 -10 -10 0 -5 8 -10 19
-10 13 0 19 7 19 25 0 14 -4 25 -9 25 -5 0 -9 -7 -9 -15z"/>
<path d="M3708 7104 c-11 -10 3 -34 19 -34 8 0 13 7 11 17 -3 18 -20 27 -30
17z"/>
<path d="M3796 7063 c-9 -22 10 -41 25 -26 13 13 5 43 -10 43 -5 0 -12 -8 -15
-17z"/>
<path d="M3703 7028 c2 -7 10 -13 17 -13 7 0 15 6 18 13 2 7 -5 12 -18 12 -13
0 -20 -5 -17 -12z"/>
<path d="M3704 6979 c-10 -17 13 -36 27 -22 12 12 4 33 -11 33 -5 0 -12 -5
-16 -11z"/>
<path d="M3792 6963 c2 -10 10 -18 18 -18 8 0 16 8 18 18 2 12 -3 17 -18 17
-15 0 -20 -5 -18 -17z"/>
<path d="M3707 6913 c-13 -12 -7 -23 13 -23 11 0 20 7 20 15 0 15 -21 21 -33
8z"/>
<path d="M3800 6896 c0 -9 7 -16 16 -16 17 0 14 22 -4 28 -7 2 -12 -3 -12 -12z"/>
<path d="M3690 6850 c0 -5 5 -10 10 -10 6 0 10 5 10 10 0 6 -4 10 -10 10 -5 0
-10 -4 -10 -10z"/>
<path d="M4888 7138 c5 -5 16 -8 23 -6 8 3 3 7 -10 11 -17 4 -21 3 -13 -5z"/>
<path d="M5013 7054 c-7 -18 11 -39 26 -30 17 11 13 46 -4 46 -9 0 -18 -7 -22
-16z"/>
<path d="M5042 6983 c5 -26 38 -29 38 -4 0 15 -6 21 -21 21 -14 0 -19 -5 -17
-17z"/>
<path d="M5020 6856 c0 -9 7 -16 16 -16 17 0 14 22 -4 28 -7 2 -12 -3 -12 -12z"/>
<path d="M4092 7063 c5 -25 28 -28 28 -4 0 12 -6 21 -16 21 -9 0 -14 -7 -12
-17z"/>
<path d="M4017 7053 c-4 -3 -7 -16 -7 -27 0 -19 1 -19 17 -3 12 11 14 20 7 27
-6 6 -13 7 -17 3z"/>
<path d="M4088 6984 c-9 -8 3 -44 13 -38 11 7 12 44 1 44 -5 0 -11 -3 -14 -6z"/>
<path d="M4010 6964 c0 -9 5 -14 12 -12 18 6 21 28 4 28 -9 0 -16 -7 -16 -16z"/>
<path d="M4016 6923 c-11 -11 -6 -23 9 -23 8 0 15 4 15 9 0 13 -16 22 -24 14z"/>
<path d="M5470 7080 c0 -11 6 -20 14 -20 9 0 12 7 9 20 -3 11 -9 20 -14 20 -5
0 -9 -9 -9 -20z"/>
<path d="M5445 6970 c-4 -6 -3 -16 3 -22 6 -6 12 -6 17 2 4 6 3 16 -3 22 -6 6
-12 6 -17 -2z"/>
<path d="M5520 6946 c0 -15 37 -32 47 -22 9 8 -17 36 -33 36 -8 0 -14 -6 -14
-14z"/>
<path d="M4520 6925 c0 -8 5 -15 10 -15 6 0 10 7 10 15 0 8 -4 15 -10 15 -5 0
-10 -7 -10 -15z"/>
<path d="M4590 6900 c0 -5 5 -10 10 -10 6 0 10 5 10 10 0 6 -4 10 -10 10 -5 0
-10 -4 -10 -10z"/>
<path d="M4510 6835 c0 -8 5 -15 10 -15 6 0 10 7 10 15 0 8 -4 15 -10 15 -5 0
-10 -7 -10 -15z"/>
<path d="M4590 6831 c0 -6 5 -13 10 -16 6 -3 10 1 10 9 0 9 -4 16 -10 16 -5 0
-10 -4 -10 -9z"/>
<path d="M4660 6804 c0 -8 5 -12 10 -9 6 4 8 11 5 16 -9 14 -15 11 -15 -7z"/>
<path d="M5980 6960 c0 -19 11 -26 23 -14 8 8 -3 34 -14 34 -5 0 -9 -9 -9 -20z"/>
<path d="M6032 6953 c2 -10 10 -18 18 -18 8 0 16 8 18 18 2 12 -3 17 -18 17
-15 0 -20 -5 -18 -17z"/>
<path d="M5973 6885 c-7 -20 2 -29 21 -22 9 4 13 13 10 22 -8 19 -23 19 -31 0z"/>
<path d="M6030 6888 c0 -7 4 -19 9 -27 12 -19 43 -6 39 16 -4 21 -48 31 -48
11z"/>
<path d="M5975 6810 c-8 -14 3 -30 21 -30 8 0 14 9 14 20 0 21 -24 28 -35 10z"/>
<path d="M6030 6805 c0 -8 9 -15 20 -15 11 0 20 7 20 15 0 8 -9 15 -20 15 -11
0 -20 -7 -20 -15z"/>
<path d="M6039 6739 c-9 -17 -8 -23 2 -30 17 -10 29 -2 29 21 0 28 -17 33 -31
9z"/>
<path d="M5972 6723 c2 -10 10 -18 18 -18 22 0 18 29 -3 33 -14 3 -18 -1 -15
-15z"/>
<path d="M6047 6673 c-13 -12 -7 -53 7 -53 17 0 28 24 20 45 -7 16 -17 19 -27
8z"/>
<path d="M5974 6649 c-8 -14 11 -33 25 -25 11 7 4 36 -9 36 -5 0 -12 -5 -16
-11z"/>
<path d="M6035 6581 c-9 -16 15 -55 27 -43 12 12 7 44 -9 49 -6 2 -14 -1 -18
-6z"/>
<path d="M5977 6574 c-8 -8 3 -34 14 -34 5 0 9 9 9 20 0 19 -11 26 -23 14z"/>
<path d="M6824 6845 c-7 -17 12 -45 31 -45 11 0 24 29 25 53 0 14 -51 7 -56
-8z"/>
<path d="M6833 6774 c-7 -18 11 -39 26 -30 17 11 13 46 -4 46 -9 0 -18 -7 -22
-16z"/>
<path d="M6818 6715 c-3 -3 -3 -15 -1 -26 4 -15 13 -19 32 -17 36 4 37 42 1
46 -14 2 -28 0 -32 -3z"/>
<path d="M6825 6650 c-11 -17 5 -48 23 -46 21 4 29 36 10 47 -17 11 -26 11
-33 -1z"/>
<path d="M6822 6568 c3 -25 36 -37 48 -17 13 20 0 39 -27 39 -20 0 -24 -4 -21
-22z"/>
<path d="M6824 6515 c-9 -23 3 -45 26 -45 25 0 37 25 20 45 -16 19 -39 19 -46
0z"/>
<path d="M5740 6890 c0 -11 5 -20 10 -20 6 0 10 9 10 20 0 11 -4 20 -10 20 -5
0 -10 -9 -10 -20z"/>
<path d="M5730 6826 c0 -15 24 -28 34 -19 7 7 -13 33 -25 33 -5 0 -9 -6 -9
-14z"/>
<path d="M5740 6755 c12 -15 30 -12 30 6 0 5 -10 9 -21 9 -18 0 -19 -2 -9 -15z"/>
<path d="M5725 6691 c-3 -5 -1 -12 4 -16 6 -3 8 -12 5 -19 -5 -13 30 -29 40
-18 13 12 5 42 -13 52 -24 12 -28 12 -36 1z"/>
<path d="M5727 6602 c-3 -4 -3 -20 1 -37 4 -26 6 -27 13 -10 11 28 11 55 0 55
-6 0 -12 -3 -14 -8z"/>
<path d="M6222 6833 c2 -10 10 -18 18 -18 22 0 18 29 -3 33 -14 3 -18 -1 -15
-15z"/>
<path d="M6220 6665 c0 -9 5 -15 11 -13 6 2 11 8 11 13 0 5 -5 11 -11 13 -6 2
-11 -4 -11 -13z"/>
<path d="M3937 6764 c-4 -4 -7 -18 -7 -31 0 -18 5 -23 26 -23 22 0 25 4 22 27
-3 27 -26 41 -41 27z"/>
<path d="M4015 6710 c-4 -6 -3 -14 0 -20 9 -15 35 -12 35 4 0 17 -27 29 -35
16z"/>
<path d="M3943 6693 c-23 -8 -14 -33 12 -33 15 0 25 6 25 14 0 16 -19 25 -37
19z"/>
<path d="M3935 6631 c-7 -12 32 -34 45 -26 6 3 10 13 10 21 0 16 -45 20 -55 5z"/>
<path d="M4026 6623 c-12 -12 -6 -33 9 -33 8 0 15 6 15 14 0 17 -14 28 -24 19z"/>
<path d="M4065 6611 c-6 -11 9 -23 19 -14 9 9 7 23 -3 23 -6 0 -12 -4 -16 -9z"/>
<path d="M3936 6591 c-10 -16 5 -41 25 -41 21 0 25 20 7 38 -14 14 -25 15 -32
3z"/>
<path d="M4022 6538 c4 -28 58 -40 58 -14 0 9 -7 16 -15 16 -8 0 -15 5 -15 10
0 6 -7 10 -16 10 -10 0 -14 -7 -12 -22z"/>
<path d="M3947 6513 c-12 -12 -7 -31 10 -37 9 -4 23 0 32 9 14 14 14 17 1 25
-18 11 -34 13 -43 3z"/>
<path d="M4029 6459 c11 -32 51 -39 51 -10 0 12 -6 21 -14 21 -8 0 -22 3 -30
6 -13 5 -15 2 -7 -17z"/>
<path d="M3943 6404 c-3 -8 -1 -20 5 -26 16 -16 42 -2 42 22 0 24 -38 28 -47
4z"/>
<path d="M4017 6383 c-12 -12 -7 -31 10 -37 20 -8 36 14 21 31 -12 14 -21 16
-31 6z"/>
<path d="M3943 6283 c2 -18 10 -28 20 -28 10 0 17 3 17 8 0 4 0 16 0 27 0 13
-7 20 -20 20 -17 0 -20 -5 -17 -27z"/>
<path d="M4014 6269 c-8 -14 18 -31 30 -19 9 9 0 30 -14 30 -5 0 -12 -5 -16
-11z"/>
<path d="M4065 6260 c3 -5 10 -10 16 -10 5 0 9 5 9 10 0 6 -7 10 -16 10 -8 0
-12 -4 -9 -10z"/>
<path d="M3950 6196 c0 -14 5 -28 11 -32 17 -10 32 12 24 35 -9 29 -35 27 -35
-3z"/>
<path d="M4017 6204 c-9 -10 2 -24 19 -24 8 0 14 7 14 15 0 15 -21 21 -33 9z"/>
<path d="M4060 6175 c0 -8 7 -15 15 -15 8 0 15 7 15 15 0 8 -7 15 -15 15 -8 0
-15 -7 -15 -15z"/>
<path d="M3950 6140 c0 -5 7 -10 15 -10 8 0 15 5 15 10 0 6 -7 10 -15 10 -8 0
-15 -4 -15 -10z"/>
<path d="M4015 6140 c-8 -12 20 -24 35 -15 6 3 8 11 5 16 -8 12 -32 12 -40 -1z"/>
<path d="M3952 6088 c2 -13 10 -23 18 -23 8 0 16 10 18 23 3 17 -2 22 -18 22
-16 0 -21 -5 -18 -22z"/>
<path d="M4020 6076 c0 -18 30 -30 43 -17 5 5 6 14 3 20 -10 16 -46 13 -46 -3z"/>
<path d="M3950 6019 c0 -19 21 -50 31 -44 5 4 9 17 9 31 0 17 -5 24 -20 24
-11 0 -20 -5 -20 -11z"/>
<path d="M4022 6021 c-11 -6 -10 -11 3 -25 21 -20 44 -21 52 -1 3 9 4 17 2 19
-11 10 -46 14 -57 7z"/>
<path d="M4025 5951 c-8 -15 35 -35 47 -23 6 6 7 15 4 21 -9 14 -43 14 -51 2z"/>
<path d="M5423 6773 c-8 -3 -3 -13 15 -29 l27 -25 -27 5 c-35 8 -36 -6 -2 -33
32 -25 47 -18 39 19 -3 16 -2 31 4 35 6 3 11 -1 11 -9 0 -17 35 -22 45 -7 8
13 -25 43 -41 37 -7 -3 -16 -1 -19 4 -6 10 -31 12 -52 3z"/>
<path d="M5497 6704 c-12 -12 6 -34 29 -34 26 0 30 10 12 28 -13 13 -31 16
-41 6z"/>
<path d="M5560 6699 c0 -5 5 -7 10 -4 6 3 10 8 10 11 0 2 -4 4 -10 4 -5 0 -10
-5 -10 -11z"/>
<path d="M5430 6650 c-11 -7 -12 -12 -3 -21 15 -15 48 -7 48 11 0 18 -24 24
-45 10z"/>
<path d="M5487 6626 c-7 -17 11 -36 35 -36 23 0 24 35 2 44 -24 9 -31 7 -37
-8z"/>
<path d="M7016 6701 c-7 -11 14 -51 27 -51 5 0 7 12 5 27 -3 28 -22 41 -32 24z"/>
<path d="M7008 6605 c-10 -10 4 -55 17 -55 18 0 24 21 13 43 -9 17 -20 22 -30
12z"/>
<path d="M3014 6615 c-8 -21 4 -35 32 -35 19 0 24 5 24 25 0 20 -5 25 -25 25
-14 0 -28 -7 -31 -15z"/>
<path d="M3020 6552 c0 -10 41 -35 47 -28 11 11 -7 36 -27 36 -11 0 -20 -3
-20 -8z"/>
<path d="M3010 6507 c0 -8 12 -18 26 -21 48 -12 44 14 -3 29 -17 4 -23 2 -23
-8z"/>
<path d="M3032 6453 c-10 -4 -10 -8 -1 -19 16 -19 41 -18 37 3 -3 18 -16 24
-36 16z"/>
<path d="M5377 5864 c-13 -13 -7 -24 14 -24 11 0 19 5 17 12 -5 14 -22 21 -31
12z"/>
<path d="M5920 6098 c0 -68 4 -108 9 -99 13 20 14 198 1 206 -7 4 -10 -31 -10
-107z"/>
<path d="M5750 5490 c0 -5 5 -10 10 -10 6 0 10 5 10 10 0 6 -4 10 -10 10 -5 0
-10 -4 -10 -10z"/>
<path d="M3704 6226 c-8 -21 3 -49 16 -41 5 3 10 15 10 25 0 25 -18 36 -26 16z"/>
<path d="M3706 6113 c-12 -13 -6 -53 9 -53 9 0 15 9 15 24 0 26 -12 40 -24 29z"/>
<path d="M3694 5989 c-10 -17 13 -36 27 -22 12 12 4 33 -11 33 -5 0 -12 -5
-16 -11z"/>
<path d="M5270 6280 c-9 -6 -10 -10 -3 -10 6 0 15 5 18 10 8 12 4 12 -15 0z"/>
<path d="M4905 6121 c-3 -5 -1 -12 4 -15 12 -8 41 3 41 15 0 12 -37 12 -45 0z"/>
<path d="M2994 6099 c-10 -17 13 -36 27 -22 12 12 4 33 -11 33 -5 0 -12 -5
-16 -11z"/>
<path d="M3072 6083 c4 -22 48 -31 48 -10 0 14 -20 27 -42 27 -5 0 -8 -8 -6
-17z"/>
<path d="M3157 6043 c-13 -12 -7 -43 8 -43 9 0 15 9 15 25 0 24 -10 32 -23 18z"/>
<path d="M3070 5996 c0 -10 9 -16 21 -16 24 0 21 23 -4 28 -10 2 -17 -3 -17
-12z"/>
<path d="M3017 5963 c-11 -10 -8 -43 3 -43 15 0 24 30 13 41 -5 5 -12 6 -16 2z"/>
<path d="M3072 5934 c4 -21 22 -23 26 -1 2 10 -3 17 -13 17 -10 0 -15 -6 -13
-16z"/>
<path d="M3152 5939 c2 -6 8 -10 13 -10 5 0 11 4 13 10 2 6 -4 11 -13 11 -9 0
-15 -5 -13 -11z"/>
<path d="M3155 5890 c-10 -17 12 -37 25 -24 8 8 6 15 -4 23 -10 9 -16 9 -21 1z"/>
<path d="M3126 5836 c7 -18 54 -30 67 -17 11 11 5 14 -45 25 -21 5 -26 3 -22
-8z"/>
<path d="M5050 5990 c6 -11 15 -20 20 -20 16 0 11 27 -6 34 -24 9 -26 8 -14
-14z"/>
<path d="M5112 5981 c2 -7 7 -12 11 -12 12 1 9 15 -3 20 -7 2 -11 -2 -8 -8z"/>
<path d="M7443 5855 c-3 -9 0 -21 7 -25 19 -12 51 1 48 19 -4 22 -46 27 -55 6z"/>
<path d="M6441 5871 c-16 -28 -11 -111 5 -111 9 0 14 12 14 34 0 18 3 48 6 65
7 35 -9 43 -25 12z"/>
<path d="M6430 5685 c0 -14 5 -25 10 -25 6 0 10 11 10 25 0 14 -4 25 -10 25
-5 0 -10 -11 -10 -25z"/>
<path d="M6470 5680 c0 -19 11 -26 23 -14 8 8 -3 34 -14 34 -5 0 -9 -9 -9 -20z"/>
<path d="M6423 5556 c4 -51 17 -57 17 -8 0 23 -4 42 -9 42 -6 0 -9 -15 -8 -34z"/>
<path d="M6472 5568 c6 -18 28 -21 28 -4 0 9 -7 16 -16 16 -9 0 -14 -5 -12
-12z"/>
<path d="M6475 5520 c3 -5 10 -10 16 -10 5 0 9 5 9 10 0 6 -7 10 -16 10 -8 0
-12 -4 -9 -10z"/>
<path d="M6420 5465 c0 -8 5 -15 10 -15 6 0 10 7 10 15 0 8 -4 15 -10 15 -5 0
-10 -7 -10 -15z"/>
<path d="M6420 5416 c0 -9 5 -16 10 -16 6 0 10 4 10 9 0 6 -4 13 -10 16 -5 3
-10 -1 -10 -9z"/>
<path d="M6480 5415 c0 -8 5 -15 10 -15 6 0 10 7 10 15 0 8 -4 15 -10 15 -5 0
-10 -7 -10 -15z"/>
<path d="M6415 5360 c-7 -12 2 -30 16 -30 5 0 9 9 9 20 0 21 -15 27 -25 10z"/>
<path d="M6475 5360 c-7 -12 2 -30 16 -30 12 0 12 27 0 35 -5 3 -12 1 -16 -5z"/>
<path d="M6412 5278 c5 -32 28 -35 28 -4 0 17 -5 26 -16 26 -10 0 -14 -7 -12
-22z"/>
<path d="M6480 5289 c0 -5 5 -7 10 -4 6 3 10 8 10 11 0 2 -4 4 -10 4 -5 0 -10
-5 -10 -11z"/>
<path d="M6480 5260 c0 -5 5 -10 10 -10 6 0 10 5 10 10 0 6 -4 10 -10 10 -5 0
-10 -4 -10 -10z"/>
<path d="M6410 5191 c0 -12 6 -21 16 -21 9 0 14 7 12 17 -5 25 -28 28 -28 4z"/>
<path d="M6472 5198 c6 -18 28 -21 28 -4 0 9 -7 16 -16 16 -9 0 -14 -5 -12
-12z"/>
<path d="M6480 5116 c0 -14 5 -28 10 -31 6 -4 10 7 10 24 0 17 -4 31 -10 31
-5 0 -10 -11 -10 -24z"/>
<path d="M6415 5110 c-8 -13 4 -32 16 -25 12 8 12 35 0 35 -6 0 -13 -4 -16
-10z"/>
<path d="M6410 5021 c0 -12 6 -21 16 -21 9 0 14 7 12 17 -5 25 -28 28 -28 4z"/>
<path d="M6477 5034 c-8 -8 1 -24 14 -24 5 0 9 7 9 15 0 15 -12 20 -23 9z"/>
<path d="M3910 5800 c0 -5 7 -10 16 -10 8 0 12 5 9 10 -3 6 -10 10 -16 10 -5
0 -9 -4 -9 -10z"/>
<path d="M4025 5710 c3 -5 10 -10 16 -10 5 0 9 5 9 10 0 6 -7 10 -16 10 -8 0
-12 -4 -9 -10z"/>
<path d="M3745 5690 c4 -6 11 -8 16 -5 14 9 11 15 -7 15 -8 0 -12 -5 -9 -10z"/>
<path d="M3610 5620 c0 -5 5 -10 10 -10 6 0 10 5 10 10 0 6 -4 10 -10 10 -5 0
-10 -4 -10 -10z"/>
<path d="M2503 5318 c2 -7 10 -13 17 -13 7 0 15 6 18 13 2 7 -5 12 -18 12 -13
0 -20 -5 -17 -12z"/>
<path d="M4520 5260 c30 -22 50 -31 50 -22 0 6 -8 12 -17 16 -10 3 -25 9 -33
12 -13 5 -13 4 0 -6z"/>
<path d="M4600 5260 c0 -5 5 -10 11 -10 5 0 7 5 4 10 -3 6 -8 10 -11 10 -2 0
-4 -4 -4 -10z"/>
<path d="M7280 4875 c0 -20 4 -26 18 -23 9 2 17 12 17 23 0 11 -8 21 -17 23
-14 3 -18 -3 -18 -23z"/>
<path d="M7873 5134 c-3 -8 0 -21 7 -27 10 -9 14 -9 17 0 2 7 11 9 20 6 19 -7
37 18 20 29 -21 13 -57 9 -64 -8z"/>
<path d="M3330 5105 c0 -8 9 -19 19 -25 29 -15 61 -12 61 5 0 8 -9 15 -20 15
-11 0 -20 5 -20 10 0 6 -9 10 -20 10 -11 0 -20 -7 -20 -15z"/>
<path d="M2480 5070 c0 -5 5 -10 10 -10 6 0 10 5 10 10 0 6 -4 10 -10 10 -5 0
-10 -4 -10 -10z"/>
<path d="M2520 5051 c0 -21 26 -36 35 -21 4 6 1 10 -4 10 -6 0 -11 7 -11 15 0
8 -4 15 -10 15 -5 0 -10 -9 -10 -19z"/>
<path d="M7690 5060 c0 -6 7 -10 15 -10 8 0 15 2 15 4 0 2 -7 6 -15 10 -8 3
-15 1 -15 -4z"/>
<path d="M4538 4919 c-22 -12 -24 -62 -3 -79 36 -30 95 38 65 75 -14 17 -37
19 -62 4z"/>
<path d="M3027 4843 c-13 -12 -7 -51 9 -57 25 -10 91 -7 76 3 -11 7 -11 9 2
14 18 7 22 27 5 27 -5 0 -7 -4 -4 -10 3 -5 -1 -10 -9 -10 -14 0 -20 12 -17 33
2 11 -14 8 -27 -5 -10 -10 -14 -10 -21 0 -4 7 -10 9 -14 5z"/>
<path d="M7873 4734 c-38 -16 -43 -34 -10 -34 25 0 67 26 67 41 0 12 -18 10
-57 -7z"/>
<path d="M7695 4689 c-4 -6 -5 -13 -2 -16 7 -7 27 6 27 18 0 12 -17 12 -25 -2z"/>
<path d="M7786 4692 c-11 -11 -6 -19 19 -30 32 -15 65 -15 65 -2 0 6 -6 10
-12 10 -7 0 -25 6 -40 14 -15 8 -29 12 -32 8z"/>
<path d="M7895 4649 c-4 -6 -4 -13 -1 -16 8 -8 36 5 36 17 0 13 -27 13 -35 -1z"/>
<path d="M7910 4600 c0 -11 6 -20 13 -20 19 0 27 10 20 26 -8 21 -33 17 -33
-6z"/>
<path d="M7865 4530 c3 -5 12 -10 20 -10 8 0 17 5 20 10 4 6 -5 10 -20 10 -15
0 -24 -4 -20 -10z"/>
<path d="M7235 4530 c3 -5 13 -10 21 -10 8 0 12 5 9 10 -3 6 -13 10 -21 10 -8
0 -12 -4 -9 -10z"/>
<path d="M7614 4319 c-3 -6 -2 -15 3 -20 12 -12 63 5 63 21 0 13 -57 13 -66
-1z"/>
<path d="M7790 4210 c0 -5 5 -10 10 -10 6 0 10 5 10 10 0 6 -4 10 -10 10 -5 0
-10 -4 -10 -10z"/>
<path d="M3970 3197 c0 -69 15 -101 46 -95 15 3 20 13 22 57 4 60 -16 101 -48
101 -18 0 -20 -7 -20 -63z"/>
<path d="M3000 3415 c0 -8 5 -15 10 -15 6 0 10 7 10 15 0 8 -4 15 -10 15 -5 0
-10 -7 -10 -15z"/>
<path d="M3114 3409 c-3 -6 -1 -16 5 -22 8 -8 11 -5 11 11 0 24 -5 28 -16 11z"/>
<path d="M2923 3363 c-16 -6 -17 -33 -3 -33 11 0 26 28 19 34 -2 2 -10 1 -16
-1z"/>
<path d="M3102 3350 c-7 -11 -9 -20 -4 -20 10 0 32 22 32 32 0 15 -15 8 -28
-12z"/>
<path d="M2985 3319 c-4 -6 -5 -13 -2 -16 7 -7 27 6 27 18 0 12 -17 12 -25 -2z"/>
<path d="M2851 3284 c-12 -15 -21 -31 -21 -37 0 -6 -7 -18 -16 -28 -12 -14
-14 -31 -8 -88 l7 -71 32 0 c29 0 33 4 37 33 3 17 2 61 -2 97 -4 36 -3 77 1
93 10 34 -3 35 -30 1z"/>
<path d="M7045 3311 c-3 -5 -1 -12 5 -16 5 -3 10 1 10 9 0 18 -6 21 -15 7z"/>
<path d="M4610 2941 c0 -69 0 -69 31 -76 54 -12 87 42 58 97 -9 16 -64 48 -84
48 -3 0 -5 -31 -5 -69z"/>
<path d="M6585 2799 c-33 -11 -172 -53 -310 -93 -276 -82 -310 -94 -302 -102
9 -9 83 10 347 87 285 83 343 102 348 117 5 16 -13 14 -83 -9z"/>
<path d="M5720 2521 c-50 -17 -261 -81 -369 -112 -24 -7 -40 -14 -35 -16 10
-3 126 29 294 81 63 20 122 36 131 36 9 0 22 7 29 15 15 18 17 18 -50 -4z"/>
<path d="M6265 2460 c3 -5 8 -10 11 -10 2 0 4 5 4 10 0 6 -5 10 -11 10 -5 0
-7 -4 -4 -10z"/>
<path d="M6122 2408 c6 -18 28 -21 28 -4 0 9 -7 16 -16 16 -9 0 -14 -5 -12
-12z"/>
<path d="M6199 2361 c-23 -18 -23 -20 -5 -27 21 -8 51 7 51 26 0 22 -20 22
-46 1z"/>
<path d="M4298 2413 c7 -3 16 -2 19 1 4 3 -2 6 -13 5 -11 0 -14 -3 -6 -6z"/>
<path d="M4125 2370 c-3 -5 -1 -10 4 -10 6 0 11 5 11 10 0 6 -2 10 -4 10 -3 0
-8 -4 -11 -10z"/>
<path d="M4435 2330 c-3 -6 1 -7 9 -4 18 7 21 14 7 14 -6 0 -13 -4 -16 -10z"/>
<path d="M4368 2273 c7 -3 16 -2 19 1 4 3 -2 6 -13 5 -11 0 -14 -3 -6 -6z"/>
<path d="M5580 1841 c-13 -13 -12 -14 4 -8 10 4 25 2 32 -4 7 -6 19 -9 26 -7
7 3 -1 11 -18 19 -27 14 -32 14 -44 0z"/>
<path d="M6026 1764 c-20 -19 -20 -24 0 -24 8 0 12 5 9 10 -3 6 1 10 9 10 9 0
16 5 16 10 0 15 -16 12 -34 -6z"/>
<path d="M4700 1960 c-8 -5 -10 -10 -5 -10 6 0 17 5 25 10 8 5 11 10 5 10 -5
0 -17 -5 -25 -10z"/>
<path d="M4830 1890 c-12 -7 -12 -10 3 -16 21 -8 29 -3 19 13 -5 8 -13 9 -22
3z"/>
</g>
</svg>
